EBGaramondVF-xopaqueMin.ufo
<glyph name="exclam" format="1">
  <advance width="249"/>
  <unicode hex="0021"/>
  <outline>
    <contour>
      <point x="130" y="205"/>
      <point x="139" y="217"/>
      <point x="139" y="237" type="curve" smooth="yes"/>
      <point x="139" y="362"/>
      <point x="128" y="498"/>
      <point x="128" y="637" type="curve"/>
      <point x="128" y="643"/>
      <point x="128" y="649"/>
      <point x="123" y="649" type="curve" smooth="yes"/>
      <point x="118" y="649"/>
      <point x="118" y="643"/>
      <point x="118" y="637" type="curve"/>
      <point x="118" y="498"/>
      <point x="107" y="358"/>
      <point x="107" y="237" type="curve" smooth="yes"/>
      <point x="107" y="214"/>
      <point x="117" y="205"/>
      <point x="123" y="205" type="curve" smooth="yes"/>
    </contour>
    <contour>
      <point x="140" y="-14"/>
      <point x="150" y="-4"/>
      <point x="150" y="10" type="curve" smooth="yes"/>
      <point x="150" y="27"/>
      <point x="140" y="37"/>
      <point x="123" y="37" type="curve" smooth="yes"/>
      <point x="109" y="37"/>
      <point x="99" y="27"/>
      <point x="99" y="10" type="curve" smooth="yes"/>
      <point x="99" y="-4"/>
      <point x="109" y="-14"/>
      <point x="123" y="-14" type="curve" smooth="yes"/>
    </contour>
  </outline>
</glyph>
<glyph name="numbersign" format="1">
  <advance width="468"/>
  <unicode hex="0023"/>
  <outline>
    <contour>
      <point x="60" y="-79" type="curve" smooth="yes"/>
      <point x="73" y="-79"/>
      <point x="87" y="-77"/>
      <point x="90" y="-64" type="curve" smooth="yes"/>
      <point x="140" y="142" type="line"/>
      <point x="254" y="148" type="line"/>
      <point x="205" y="-53" type="line"/>
      <point x="205" y="-56" type="line" smooth="yes"/>
      <point x="205" y="-62"/>
      <point x="209" y="-68"/>
      <point x="215" y="-68" type="curve" smooth="yes"/>
      <point x="228" y="-68"/>
      <point x="242" y="-66"/>
      <point x="245" y="-53" type="curve" smooth="yes"/>
      <point x="294" y="150" type="line"/>
      <point x="362" y="153" type="line" smooth="yes"/>
      <point x="371" y="153"/>
      <point x="374" y="154"/>
      <point x="374" y="159" type="curve" smooth="yes"/>
      <point x="374" y="162"/>
      <point x="368" y="164"/>
      <point x="361" y="164" type="curve" smooth="yes"/>
      <point x="299" y="161" type="line"/>
      <point x="344" y="345" type="line"/>
      <point x="407" y="348" type="line" smooth="yes"/>
      <point x="416" y="348"/>
      <point x="419" y="349"/>
      <point x="419" y="353" type="curve" smooth="yes"/>
      <point x="419" y="357"/>
      <point x="416" y="359"/>
      <point x="406" y="359" type="curve" smooth="yes"/>
      <point x="347" y="356" type="line"/>
      <point x="394" y="553" type="line"/>
      <point x="394" y="555"/>
      <point x="395" y="556"/>
      <point x="395" y="558" type="curve" smooth="yes"/>
      <point x="395" y="564"/>
      <point x="392" y="570"/>
      <point x="387" y="570" type="curve" smooth="yes"/>
      <point x="373" y="570"/>
      <point x="357" y="567"/>
      <point x="354" y="553" type="curve" smooth="yes"/>
      <point x="306" y="354" type="line"/>
      <point x="193" y="348" type="line"/>
      <point x="239" y="542" type="line"/>
      <point x="239" y="544"/>
      <point x="240" y="545"/>
      <point x="240" y="547" type="curve" smooth="yes"/>
      <point x="240" y="553"/>
      <point x="237" y="559"/>
      <point x="232" y="559" type="curve" smooth="yes"/>
      <point x="218" y="559"/>
      <point x="202" y="556"/>
      <point x="199" y="542" type="curve" smooth="yes"/>
      <point x="152" y="346" type="line"/>
      <point x="77" y="343" type="line" smooth="yes"/>
      <point x="72" y="343"/>
      <point x="65" y="343"/>
      <point x="65" y="338" type="curve" smooth="yes"/>
      <point x="65" y="333"/>
      <point x="72" y="332"/>
      <point x="79" y="332" type="curve" smooth="yes"/>
      <point x="149" y="335" type="line"/>
      <point x="104" y="151" type="line"/>
      <point x="34" y="148" type="line" smooth="yes"/>
      <point x="27" y="148"/>
      <point x="20" y="147"/>
      <point x="20" y="143" type="curve" smooth="yes"/>
      <point x="20" y="139"/>
      <point x="27" y="137"/>
      <point x="34" y="137" type="curve" smooth="yes"/>
      <point x="100" y="140" type="line"/>
      <point x="50" y="-64" type="line"/>
      <point x="50" y="-67" type="line" smooth="yes"/>
      <point x="50" y="-73"/>
      <point x="54" y="-79"/>
    </contour>
    <contour>
      <point x="145" y="153" type="line"/>
      <point x="190" y="337" type="line"/>
      <point x="303" y="343" type="line"/>
      <point x="259" y="159" type="line"/>
    </contour>
  </outline>
</glyph>
<glyph name="quotesingle" format="1">
  <advance width="146"/>
  <unicode hex="0027"/>
  <outline>
    <contour>
      <point x="66" y="444"/>
      <point x="69" y="457"/>
      <point x="70" y="469" type="curve" smooth="yes"/>
      <point x="75" y="505"/>
      <point x="84" y="592"/>
      <point x="84" y="644" type="curve" smooth="yes"/>
      <point x="84" y="661"/>
      <point x="83" y="676"/>
      <point x="80" y="676" type="curve" smooth="yes"/>
      <point x="75" y="676"/>
      <point x="72" y="668"/>
      <point x="67" y="655" type="curve"/>
      <point x="65" y="648"/>
      <point x="62" y="634"/>
      <point x="62" y="620" type="curve" smooth="yes"/>
      <point x="62" y="619"/>
      <point x="63" y="560"/>
      <point x="63" y="524" type="curve" smooth="yes"/>
      <point x="63" y="506"/>
      <point x="63" y="488"/>
      <point x="63" y="467" type="curve"/>
      <point x="63" y="458"/>
      <point x="63" y="444"/>
      <point x="65" y="444" type="curve" smooth="yes"/>
    </contour>
  </outline>
</glyph>
<glyph name="parenleft" format="1">
  <advance width="315"/>
  <unicode hex="0028"/>
  <outline>
    <contour>
      <point x="250" y="-214"/>
      <point x="264" y="-206"/>
      <point x="264" y="-192" type="curve" smooth="yes"/>
      <point x="264" y="-190"/>
      <point x="246" y="-175"/>
      <point x="245" y="-173" type="curve" smooth="yes"/>
      <point x="167" y="-102"/>
      <point x="85" y="111"/>
      <point x="85" y="281" type="curve" smooth="yes"/>
      <point x="85" y="451"/>
      <point x="171" y="599"/>
      <point x="249" y="670" type="curve" smooth="yes"/>
      <point x="251" y="672"/>
      <point x="265" y="687"/>
      <point x="265" y="689" type="curve" smooth="yes"/>
      <point x="265" y="698"/>
      <point x="250" y="705"/>
      <point x="244" y="705" type="curve" smooth="yes"/>
      <point x="236" y="705"/>
      <point x="226" y="700"/>
      <point x="221" y="694" type="curve" smooth="yes"/>
      <point x="161" y="623"/>
      <point x="72" y="439"/>
      <point x="72" y="269" type="curve" smooth="yes"/>
      <point x="72" y="99"/>
      <point x="164" y="-136"/>
      <point x="225" y="-207" type="curve" smooth="yes"/>
      <point x="229" y="-212"/>
      <point x="234" y="-214"/>
      <point x="239" y="-214" type="curve" smooth="yes"/>
    </contour>
  </outline>
</glyph>
<glyph name="asterisk" format="1">
  <advance width="338"/>
  <unicode hex="002A"/>
  <outline>
    <contour>
      <point x="187" y="372"/>
      <point x="188" y="374"/>
      <point x="188" y="378" type="curve"/>
      <point x="184" y="422"/>
      <point x="181" y="467"/>
      <point x="177" y="511" type="curve"/>
      <point x="218" y="492"/>
      <point x="258" y="474"/>
      <point x="299" y="455" type="curve"/>
      <point x="300" y="455"/>
      <point x="305" y="455"/>
      <point x="305" y="460" type="curve" smooth="yes"/>
      <point x="305" y="462"/>
      <point x="303" y="463"/>
      <point x="302" y="464" type="curve"/>
      <point x="262" y="483"/>
      <point x="221" y="503"/>
      <point x="181" y="522" type="curve"/>
      <point x="292" y="600" type="line"/>
      <point x="294" y="602"/>
      <point x="294" y="603"/>
      <point x="294" y="604" type="curve" smooth="yes"/>
      <point x="294" y="607"/>
      <point x="292" y="610"/>
      <point x="289" y="610" type="curve" smooth="yes"/>
      <point x="289" y="610"/>
      <point x="287" y="609"/>
      <point x="282" y="606" type="curve" smooth="yes"/>
      <point x="244" y="583"/>
      <point x="209" y="557"/>
      <point x="173" y="532" type="curve"/>
      <point x="160" y="666" type="line" smooth="yes"/>
      <point x="160" y="668"/>
      <point x="159" y="670"/>
      <point x="156" y="670" type="curve" smooth="yes"/>
      <point x="152" y="670"/>
      <point x="151" y="668"/>
      <point x="151" y="664" type="curve"/>
      <point x="155" y="620"/>
      <point x="158" y="575"/>
      <point x="162" y="531" type="curve"/>
      <point x="121" y="550"/>
      <point x="81" y="569"/>
      <point x="40" y="588" type="curve"/>
      <point x="39" y="588"/>
      <point x="34" y="588"/>
      <point x="34" y="583" type="curve" smooth="yes"/>
      <point x="34" y="581"/>
      <point x="36" y="580"/>
      <point x="37" y="579" type="curve"/>
      <point x="77" y="559"/>
      <point x="118" y="540"/>
      <point x="158" y="520" type="curve"/>
      <point x="48" y="443" type="line"/>
      <point x="46" y="441"/>
      <point x="46" y="440"/>
      <point x="46" y="439" type="curve" smooth="yes"/>
      <point x="46" y="436"/>
      <point x="48" y="433"/>
      <point x="51" y="433" type="curve" smooth="yes"/>
      <point x="51" y="433"/>
      <point x="55" y="435"/>
      <point x="56" y="436" type="curve" smooth="yes"/>
      <point x="88" y="468"/>
      <point x="129" y="485"/>
      <point x="166" y="510" type="curve"/>
      <point x="179" y="376" type="line" smooth="yes"/>
      <point x="179" y="374"/>
      <point x="180" y="372"/>
      <point x="183" y="372" type="curve" smooth="yes"/>
    </contour>
  </outline>
</glyph>
<glyph name="comma" format="1">
  <advance width="175"/>
  <unicode hex="002C"/>
  <outline>
    <contour>
      <point x="115" y="53"/>
      <point x="147" y="30"/>
      <point x="147" y="-15" type="curve" smooth="yes"/>
      <point x="147" y="-85"/>
      <point x="96" y="-128"/>
      <point x="31" y="-128" type="curve" smooth="yes"/>
      <point x="22" y="-128"/>
      <point x="17" y="-133"/>
      <point x="17" y="-138" type="curve" smooth="yes"/>
      <point x="17" y="-144"/>
      <point x="23" y="-147"/>
      <point x="35" y="-147" type="curve" smooth="yes"/>
      <point x="85" y="-147"/>
      <point x="157" y="-102"/>
      <point x="157" y="-3" type="curve" smooth="yes"/>
      <point x="157" y="63"/>
      <point x="113" y="109"/>
      <point x="68" y="109" type="curve" smooth="yes"/>
      <point x="54" y="109"/>
      <point x="42" y="97"/>
      <point x="42" y="85" type="curve" smooth="yes"/>
      <point x="42" y="69"/>
      <point x="53" y="60"/>
      <point x="70" y="58" type="curve" smooth="yes"/>
    </contour>
  </outline>
</glyph>
<glyph name="zero" format="1">
  <advance width="340"/>
  <unicode hex="0030"/>
  <outline>
    <contour>
      <point x="166" y="-14" type="curve" smooth="yes"/>
      <point x="262" y="-14"/>
      <point x="304" y="166"/>
      <point x="304" y="316" type="curve" smooth="yes"/>
      <point x="304" y="461"/>
      <point x="261" y="630"/>
      <point x="172" y="630" type="curve" smooth="yes"/>
      <point x="76" y="630"/>
      <point x="35" y="454"/>
      <point x="35" y="302" type="curve" smooth="yes"/>
      <point x="35" y="154"/>
      <point x="77" y="-14"/>
    </contour>
    <contour>
      <point x="181" y="12" type="curve" smooth="yes"/>
      <point x="91" y="12"/>
      <point x="47" y="170"/>
      <point x="47" y="320" type="curve" smooth="yes"/>
      <point x="47" y="470"/>
      <point x="75" y="602"/>
      <point x="155" y="602" type="curve" smooth="yes"/>
      <point x="245" y="602"/>
      <point x="292" y="448"/>
      <point x="292" y="298" type="curve" smooth="yes"/>
      <point x="292" y="148"/>
      <point x="261" y="12"/>
    </contour>
  </outline>
</glyph>
<glyph name="one" format="1">
  <advance width="340"/>
  <unicode hex="0031"/>
  <outline>
    <contour>
      <point x="51" y="-3" type="curve" smooth="yes"/>
      <point x="94" y="-3"/>
      <point x="127" y="2"/>
      <point x="170" y="2" type="curve" smooth="yes"/>
      <point x="212" y="2"/>
      <point x="241" y="-3"/>
      <point x="286" y="-3" type="curve" smooth="yes"/>
      <point x="292" y="-3"/>
      <point x="297" y="2"/>
      <point x="297" y="8" type="curve" smooth="yes"/>
      <point x="297" y="14"/>
      <point x="288" y="19"/>
      <point x="280" y="21" type="curve" smooth="yes"/>
      <point x="198" y="41"/>
      <point x="174" y="46"/>
      <point x="174" y="97" type="curve" smooth="yes"/>
      <point x="174" y="557" type="line" smooth="yes"/>
      <point x="174" y="585"/>
      <point x="175" y="608"/>
      <point x="178" y="628" type="curve"/>
      <point x="179" y="633"/>
      <point x="172" y="637"/>
      <point x="166" y="637" type="curve" smooth="yes"/>
      <point x="165" y="637"/>
      <point x="164" y="637"/>
      <point x="163" y="636" type="curve" smooth="yes"/>
      <point x="126" y="599"/>
      <point x="107" y="582"/>
      <point x="70" y="574" type="curve" smooth="yes"/>
      <point x="61" y="572"/>
      <point x="54" y="565"/>
      <point x="54" y="556" type="curve" smooth="yes"/>
      <point x="54" y="545"/>
      <point x="67" y="540"/>
      <point x="80" y="539" type="curve" smooth="yes"/>
      <point x="123" y="536"/>
      <point x="164" y="529"/>
      <point x="164" y="491" type="curve" smooth="yes"/>
      <point x="164" y="109" type="line" smooth="yes"/>
      <point x="164" y="50"/>
      <point x="130" y="41"/>
      <point x="54" y="22" type="curve" smooth="yes"/>
      <point x="46" y="20"/>
      <point x="39" y="14"/>
      <point x="39" y="9" type="curve" smooth="yes"/>
      <point x="39" y="3"/>
      <point x="43" y="-3"/>
    </contour>
  </outline>
</glyph>
<glyph name="two" format="1">
  <advance width="340"/>
  <unicode hex="0032"/>
  <outline>
    <contour>
      <point x="311" y="-3" type="curve" smooth="yes"/>
      <point x="318" y="-3"/>
      <point x="329" y="0"/>
      <point x="333" y="21" type="curve" smooth="yes"/>
      <point x="343" y="71"/>
      <point x="363" y="112"/>
      <point x="363" y="122" type="curve" smooth="yes"/>
      <point x="363" y="127"/>
      <point x="362" y="134"/>
      <point x="356" y="134" type="curve" smooth="yes"/>
      <point x="345" y="134"/>
      <point x="336" y="119"/>
      <point x="331" y="111" type="curve" smooth="yes"/>
      <point x="306" y="71"/>
      <point x="293" y="67"/>
      <point x="236" y="64" type="curve" smooth="yes"/>
      <point x="200" y="62"/>
      <point x="194" y="61"/>
      <point x="156" y="61" type="curve" smooth="yes"/>
      <point x="119" y="61"/>
      <point x="90" y="61"/>
      <point x="68" y="64" type="curve" smooth="yes"/>
      <point x="60" y="65"/>
      <point x="54" y="66"/>
      <point x="54" y="71" type="curve" smooth="yes"/>
      <point x="54" y="76"/>
      <point x="204" y="224"/>
      <point x="243" y="278" type="curve" smooth="yes"/>
      <point x="280" y="329"/>
      <point x="302" y="411"/>
      <point x="302" y="465" type="curve" smooth="yes"/>
      <point x="302" y="562"/>
      <point x="258" y="630"/>
      <point x="183" y="630" type="curve" smooth="yes"/>
      <point x="100" y="630"/>
      <point x="39" y="532"/>
      <point x="39" y="501" type="curve" smooth="yes"/>
      <point x="39" y="492"/>
      <point x="37" y="471"/>
      <point x="40" y="471" type="curve" smooth="yes"/>
      <point x="42" y="471"/>
      <point x="45" y="479"/>
      <point x="48" y="485" type="curve" smooth="yes"/>
      <point x="72" y="534"/>
      <point x="125" y="566"/>
      <point x="180" y="566" type="curve" smooth="yes"/>
      <point x="237" y="566"/>
      <point x="287" y="523"/>
      <point x="287" y="452" type="curve" smooth="yes"/>
      <point x="287" y="364"/>
      <point x="238" y="274"/>
      <point x="171" y="205" type="curve" smooth="yes"/>
      <point x="0" y="28" type="line" smooth="yes"/>
      <point x="-6" y="22"/>
      <point x="-8" y="21"/>
      <point x="-8" y="15" type="curve" smooth="yes"/>
      <point x="-8" y="9"/>
      <point x="7" y="-2"/>
      <point x="12" y="-2" type="curve" smooth="yes"/>
      <point x="30" y="-2"/>
      <point x="143" y="3"/>
      <point x="189" y="3" type="curve" smooth="yes"/>
      <point x="234" y="3"/>
      <point x="293" y="-3"/>
    </contour>
  </outline>
</glyph>
<glyph name="three" format="1">
  <advance width="340"/>
  <unicode hex="0033"/>
  <outline>
    <contour>
      <point x="208" y="-38"/>
      <point x="324" y="33"/>
      <point x="324" y="176" type="curve" smooth="yes"/>
      <point x="324" y="268"/>
      <point x="269" y="334"/>
      <point x="200" y="334" type="curve" smooth="yes"/>
      <point x="196" y="334"/>
      <point x="196" y="338"/>
      <point x="199" y="340" type="curve"/>
      <point x="263" y="385"/>
      <point x="285" y="446"/>
      <point x="285" y="494" type="curve" smooth="yes"/>
      <point x="285" y="571"/>
      <point x="239" y="630"/>
      <point x="167" y="630" type="curve" smooth="yes"/>
      <point x="61" y="630"/>
      <point x="26" y="534"/>
      <point x="26" y="500" type="curve" smooth="yes"/>
      <point x="26" y="490"/>
      <point x="31" y="481"/>
      <point x="36" y="481" type="curve" smooth="yes"/>
      <point x="44" y="481"/>
      <point x="59" y="570"/>
      <point x="166" y="570" type="curve" smooth="yes"/>
      <point x="221" y="570"/>
      <point x="270" y="535"/>
      <point x="270" y="466" type="curve" smooth="yes"/>
      <point x="270" y="395"/>
      <point x="167" y="343"/>
      <point x="144" y="332" type="curve" smooth="yes"/>
      <point x="131" y="326"/>
      <point x="119" y="315"/>
      <point x="114" y="298" type="curve" smooth="yes"/>
      <point x="112" y="291"/>
      <point x="124" y="285"/>
      <point x="131" y="289" type="curve" smooth="yes"/>
      <point x="154" y="302"/>
      <point x="181" y="304"/>
      <point x="196" y="304" type="curve" smooth="yes"/>
      <point x="273" y="304"/>
      <point x="312" y="223"/>
      <point x="312" y="146" type="curve" smooth="yes"/>
      <point x="312" y="63"/>
      <point x="239" y="0"/>
      <point x="166" y="0" type="curve" smooth="yes"/>
      <point x="129" y="0"/>
      <point x="108" y="16"/>
      <point x="91" y="31" type="curve" smooth="yes"/>
      <point x="79" y="42"/>
      <point x="67" y="51"/>
      <point x="52" y="51" type="curve" smooth="yes"/>
      <point x="37" y="51"/>
      <point x="8" y="19"/>
      <point x="8" y="5" type="curve" smooth="yes"/>
      <point x="8" y="-11"/>
      <point x="60" y="-38"/>
      <point x="98" y="-38" type="curve" smooth="yes"/>
    </contour>
  </outline>
</glyph>
<glyph name="four" format="1">
  <advance width="340"/>
  <unicode hex="0034"/>
  <outline>
    <contour>
      <point x="195" y="-3" type="curve" smooth="yes"/>
      <point x="234" y="-3"/>
      <point x="242" y="2"/>
      <point x="279" y="2" type="curve" smooth="yes"/>
      <point x="313" y="2"/>
      <point x="320" y="-3"/>
      <point x="361" y="-3" type="curve" smooth="yes"/>
      <point x="367" y="-3"/>
      <point x="372" y="2"/>
      <point x="372" y="8" type="curve" smooth="yes"/>
      <point x="372" y="14"/>
      <point x="362" y="20"/>
      <point x="354" y="22" type="curve" smooth="yes"/>
      <point x="300" y="36"/>
      <point x="287" y="45"/>
      <point x="287" y="84" type="curve" smooth="yes"/>
      <point x="287" y="178" type="line" smooth="yes"/>
      <point x="287" y="179"/>
      <point x="295" y="183"/>
      <point x="300" y="184" type="curve"/>
      <point x="308" y="185"/>
      <point x="319" y="186"/>
      <point x="331" y="186" type="curve" smooth="yes"/>
      <point x="347" y="186"/>
      <point x="365" y="185"/>
      <point x="380" y="185" type="curve" smooth="yes"/>
      <point x="384" y="185"/>
      <point x="401" y="207"/>
      <point x="401" y="223" type="curve" smooth="yes"/>
      <point x="401" y="227"/>
      <point x="396" y="231"/>
      <point x="390" y="231" type="curve"/>
      <point x="368" y="230"/>
      <point x="350" y="229"/>
      <point x="331" y="229" type="curve" smooth="yes"/>
      <point x="319" y="229"/>
      <point x="306" y="229"/>
      <point x="291" y="230" type="curve"/>
      <point x="288" y="230"/>
      <point x="286" y="233"/>
      <point x="286" y="236" type="curve" smooth="yes"/>
      <point x="286" y="365" type="line" smooth="yes"/>
      <point x="286" y="407"/>
      <point x="286" y="429"/>
      <point x="281" y="429" type="curve" smooth="yes"/>
      <point x="281" y="429"/>
      <point x="279" y="427"/>
      <point x="278" y="416" type="curve"/>
      <point x="277" y="412"/>
      <point x="277" y="408"/>
      <point x="277" y="394" type="curve" smooth="yes"/>
      <point x="277" y="239" type="line" smooth="yes"/>
      <point x="277" y="235"/>
      <point x="270" y="231"/>
      <point x="265" y="231" type="curve" smooth="yes"/>
      <point x="92" y="231" type="line" smooth="yes"/>
      <point x="88" y="231"/>
      <point x="90" y="237"/>
      <point x="92" y="240" type="curve" smooth="yes"/>
      <point x="362" y="628" type="line"/>
      <point x="362" y="628"/>
      <point x="370" y="642"/>
      <point x="364" y="642" type="curve" smooth="yes"/>
      <point x="343" y="642" type="line" smooth="yes"/>
      <point x="333" y="642"/>
      <point x="321" y="626"/>
      <point x="313" y="614" type="curve" smooth="yes"/>
      <point x="49" y="235" type="line" smooth="yes"/>
      <point x="36" y="217"/>
      <point x="35" y="219"/>
      <point x="10" y="188" type="curve"/>
      <point x="9" y="187"/>
      <point x="9" y="186"/>
      <point x="9" y="185" type="curve" smooth="yes"/>
      <point x="9" y="181"/>
      <point x="14" y="175"/>
      <point x="19" y="175" type="curve" smooth="yes"/>
      <point x="124" y="175"/>
      <point x="180" y="182"/>
      <point x="262" y="182" type="curve" smooth="yes"/>
      <point x="263" y="182"/>
      <point x="277" y="179"/>
      <point x="277" y="173" type="curve" smooth="yes"/>
      <point x="277" y="80" type="line" smooth="yes"/>
      <point x="277" y="48"/>
      <point x="262" y="30"/>
      <point x="200" y="22" type="curve" smooth="yes"/>
      <point x="192" y="21"/>
      <point x="182" y="17"/>
      <point x="182" y="10" type="curve" smooth="yes"/>
      <point x="182" y="1"/>
      <point x="190" y="-3"/>
    </contour>
  </outline>
</glyph>
<glyph name="five" format="1">
  <advance width="340"/>
  <unicode hex="0035"/>
  <outline>
    <contour>
      <point x="154" y="-38"/>
      <point x="223" y="-14"/>
      <point x="270" y="26" type="curve" smooth="yes"/>
      <point x="319" y="68"/>
      <point x="344" y="128"/>
      <point x="344" y="198" type="curve" smooth="yes"/>
      <point x="344" y="263"/>
      <point x="309" y="306"/>
      <point x="246" y="341" type="curve" smooth="yes"/>
      <point x="202" y="365"/>
      <point x="146" y="385"/>
      <point x="79" y="402" type="curve" smooth="yes"/>
      <point x="67" y="405"/>
      <point x="65" y="412"/>
      <point x="66" y="420" type="curve"/>
      <point x="67" y="435"/>
      <point x="104" y="525"/>
      <point x="118" y="527" type="curve" smooth="yes"/>
      <point x="148" y="531"/>
      <point x="238" y="539"/>
      <point x="290" y="545" type="curve" smooth="yes"/>
      <point x="307" y="547"/>
      <point x="317" y="557"/>
      <point x="327" y="577" type="curve" smooth="yes"/>
      <point x="332" y="587"/>
      <point x="338" y="599"/>
      <point x="344" y="610" type="curve" smooth="yes"/>
      <point x="349" y="619"/>
      <point x="343" y="628"/>
      <point x="333" y="627" type="curve" smooth="yes"/>
      <point x="255" y="619"/>
      <point x="187" y="607"/>
      <point x="126" y="592" type="curve" smooth="yes"/>
      <point x="105" y="587"/>
      <point x="92" y="576"/>
      <point x="85" y="556" type="curve" smooth="yes"/>
      <point x="70" y="512"/>
      <point x="43" y="469"/>
      <point x="43" y="433" type="curve" smooth="yes"/>
      <point x="43" y="415"/>
      <point x="43" y="404"/>
      <point x="61" y="398" type="curve" smooth="yes"/>
      <point x="233" y="341"/>
      <point x="332" y="302"/>
      <point x="332" y="204" type="curve" smooth="yes"/>
      <point x="332" y="63"/>
      <point x="246" y="-7"/>
      <point x="68" y="-7" type="curve" smooth="yes"/>
      <point x="44" y="-7"/>
      <point x="32" y="-16"/>
      <point x="32" y="-26" type="curve" smooth="yes"/>
      <point x="32" y="-35"/>
      <point x="54" y="-38"/>
      <point x="69" y="-38" type="curve" smooth="yes"/>
    </contour>
  </outline>
</glyph>
<glyph name="six" format="1">
  <advance width="340"/>
  <unicode hex="0036"/>
  <outline>
    <contour>
      <point x="156" y="-16" type="curve" smooth="yes"/>
      <point x="237" y="-16"/>
      <point x="291" y="53"/>
      <point x="291" y="170" type="curve" smooth="yes"/>
      <point x="291" y="262"/>
      <point x="245" y="313"/>
      <point x="194" y="313" type="curve" smooth="yes"/>
      <point x="166" y="313"/>
      <point x="132" y="291"/>
      <point x="121" y="280" type="curve" smooth="yes"/>
      <point x="113" y="272"/>
      <point x="108" y="267"/>
      <point x="101" y="256" type="curve" smooth="yes"/>
      <point x="95" y="247"/>
      <point x="96" y="239"/>
      <point x="108" y="245" type="curve" smooth="yes"/>
      <point x="131" y="257"/>
      <point x="153" y="260"/>
      <point x="188" y="260" type="curve" smooth="yes"/>
      <point x="241" y="260"/>
      <point x="279" y="203"/>
      <point x="279" y="142" type="curve" smooth="yes"/>
      <point x="279" y="59"/>
      <point x="230" y="21"/>
      <point x="176" y="22" type="curve" smooth="yes"/>
      <point x="110" y="23"/>
      <point x="35" y="84"/>
      <point x="33" y="195" type="curve" smooth="yes"/>
      <point x="31" y="304"/>
      <point x="54" y="414"/>
      <point x="116" y="499" type="curve" smooth="yes"/>
      <point x="151" y="547"/>
      <point x="198" y="587"/>
      <point x="261" y="614" type="curve" smooth="yes"/>
      <point x="268" y="617"/>
      <point x="281" y="622"/>
      <point x="287" y="634" type="curve" smooth="yes"/>
      <point x="289" y="638"/>
      <point x="282" y="644"/>
      <point x="272" y="641" type="curve" smooth="yes"/>
      <point x="201" y="619"/>
      <point x="146" y="573"/>
      <point x="105" y="511" type="curve" smooth="yes"/>
      <point x="48" y="424"/>
      <point x="21" y="307"/>
      <point x="21" y="193" type="curve" smooth="yes"/>
      <point x="21" y="53"/>
      <point x="88" y="-16"/>
    </contour>
  </outline>
</glyph>
<glyph name="eight" format="1">
  <advance width="340"/>
  <unicode hex="0038"/>
  <outline>
    <contour>
      <point x="164" y="-14" type="curve" smooth="yes"/>
      <point x="231" y="-14"/>
      <point x="289" y="53"/>
      <point x="289" y="164" type="curve" smooth="yes"/>
      <point x="289" y="241"/>
      <point x="270" y="288"/>
      <point x="221" y="337" type="curve" smooth="yes"/>
      <point x="214" y="344"/>
      <point x="213" y="346"/>
      <point x="224" y="358" type="curve" smooth="yes"/>
      <point x="235" y="370"/>
      <point x="244" y="381"/>
      <point x="251" y="391" type="curve" smooth="yes"/>
      <point x="269" y="417"/>
      <point x="273" y="445"/>
      <point x="273" y="496" type="curve" smooth="yes"/>
      <point x="273" y="577"/>
      <point x="227" y="630"/>
      <point x="176" y="630" type="curve" smooth="yes"/>
      <point x="119" y="630"/>
      <point x="63" y="576"/>
      <point x="63" y="471" type="curve" smooth="yes"/>
      <point x="63" y="404"/>
      <point x="72" y="354"/>
      <point x="126" y="308" type="curve" smooth="yes"/>
      <point x="133" y="302"/>
      <point x="133" y="300"/>
      <point x="127" y="295" type="curve" smooth="yes"/>
      <point x="94" y="268"/>
      <point x="51" y="229"/>
      <point x="51" y="141" type="curve" smooth="yes"/>
      <point x="51" y="49"/>
      <point x="105" y="-14"/>
    </contour>
    <contour>
      <point x="174" y="15" type="curve" smooth="yes"/>
      <point x="104" y="15"/>
      <point x="63" y="87"/>
      <point x="63" y="157" type="curve" smooth="yes"/>
      <point x="63" y="221"/>
      <point x="84" y="249"/>
      <point x="127" y="284" type="curve" smooth="yes"/>
      <point x="132" y="288"/>
      <point x="136" y="290"/>
      <point x="139" y="290" type="curve" smooth="yes"/>
      <point x="145" y="290"/>
      <point x="151" y="286"/>
      <point x="159" y="280" type="curve"/>
      <point x="217" y="240"/>
      <point x="277" y="186"/>
      <point x="277" y="124" type="curve" smooth="yes"/>
      <point x="277" y="65"/>
      <point x="233" y="15"/>
    </contour>
    <contour>
      <point x="206" y="358" type="curve"/>
      <point x="202" y="355"/>
      <point x="196" y="358"/>
      <point x="192" y="361" type="curve"/>
      <point x="122" y="418"/>
      <point x="75" y="432"/>
      <point x="75" y="509" type="curve" smooth="yes"/>
      <point x="75" y="563"/>
      <point x="129" y="606"/>
      <point x="175" y="606" type="curve" smooth="yes"/>
      <point x="233" y="606"/>
      <point x="262" y="559"/>
      <point x="262" y="503" type="curve" smooth="yes"/>
      <point x="262" y="442"/>
      <point x="252" y="396"/>
    </contour>
  </outline>
</glyph>
<glyph name="question" format="1">
  <advance width="376"/>
  <unicode hex="003F"/>
  <outline>
    <contour>
      <point x="146" y="181"/>
      <point x="151" y="194"/>
      <point x="151" y="208" type="curve" smooth="yes"/>
      <point x="152" y="260"/>
      <point x="151" y="307"/>
      <point x="183" y="326" type="curve" smooth="yes"/>
      <point x="206" y="340"/>
      <point x="228" y="353"/>
      <point x="251" y="367" type="curve" smooth="yes"/>
      <point x="285" y="388"/>
      <point x="297" y="405"/>
      <point x="297" y="440" type="curve" smooth="yes"/>
      <point x="297" y="486"/>
      <point x="274" y="566"/>
      <point x="218" y="616" type="curve" smooth="yes"/>
      <point x="185" y="646"/>
      <point x="143" y="661"/>
      <point x="110" y="661" type="curve" smooth="yes"/>
      <point x="93" y="661"/>
      <point x="70" y="644"/>
      <point x="70" y="625" type="curve" smooth="yes"/>
      <point x="70" y="598"/>
      <point x="91" y="569"/>
      <point x="112" y="569" type="curve" smooth="yes"/>
      <point x="122" y="569"/>
      <point x="129" y="570"/>
      <point x="136" y="571" type="curve" smooth="yes"/>
      <point x="143" y="572"/>
      <point x="150" y="573"/>
      <point x="159" y="573" type="curve" smooth="yes"/>
      <point x="230" y="572"/>
      <point x="276" y="518"/>
      <point x="276" y="437" type="curve" smooth="yes"/>
      <point x="276" y="402"/>
      <point x="245" y="375"/>
      <point x="199" y="350" type="curve" smooth="yes"/>
      <point x="109" y="302"/>
      <point x="101" y="290"/>
      <point x="101" y="266" type="curve" smooth="yes"/>
      <point x="101" y="240"/>
      <point x="108" y="222"/>
      <point x="114" y="205" type="curve" smooth="yes"/>
      <point x="119" y="192"/>
      <point x="129" y="181"/>
      <point x="136" y="181" type="curve" smooth="yes"/>
    </contour>
    <contour>
      <point x="183" y="-14"/>
      <point x="210" y="13"/>
      <point x="210" y="46" type="curve" smooth="yes"/>
      <point x="210" y="79"/>
      <point x="183" y="106"/>
      <point x="150" y="106" type="curve" smooth="yes"/>
      <point x="117" y="106"/>
      <point x="90" y="79"/>
      <point x="90" y="46" type="curve" smooth="yes"/>
      <point x="90" y="13"/>
      <point x="117" y="-14"/>
      <point x="150" y="-14" type="curve" smooth="yes"/>
    </contour>
  </outline>
</glyph>
<glyph name="A" format="1">
  <advance width="627"/>
  <unicode hex="0041"/>
  <outline>
    <contour>
      <point x="60" y="-5"/>
      <point x="103" y="1"/>
      <point x="147" y="1" type="curve" smooth="yes"/>
      <point x="184" y="1"/>
      <point x="220" y="-1"/>
      <point x="238" y="-1" type="curve" smooth="yes"/>
      <point x="255" y="-1"/>
      <point x="267" y="2"/>
      <point x="267" y="10" type="curve" smooth="yes"/>
      <point x="267" y="19"/>
      <point x="257" y="24"/>
      <point x="234" y="30" type="curve" smooth="yes"/>
      <point x="202" y="38"/>
      <point x="176" y="58"/>
      <point x="176" y="87" type="curve" smooth="yes"/>
      <point x="176" y="100"/>
      <point x="208" y="205"/>
      <point x="217" y="231" type="curve" smooth="yes"/>
      <point x="222" y="245"/>
      <point x="228" y="249"/>
      <point x="234" y="249" type="curve" smooth="yes"/>
      <point x="421" y="249" type="line" smooth="yes"/>
      <point x="439" y="249"/>
      <point x="445" y="248"/>
      <point x="448" y="238" type="curve" smooth="yes"/>
      <point x="463" y="188"/>
      <point x="492" y="105"/>
      <point x="492" y="76" type="curve" smooth="yes"/>
      <point x="492" y="54"/>
      <point x="475" y="38"/>
      <point x="431" y="31" type="curve" smooth="yes"/>
      <point x="413" y="28"/>
      <point x="398" y="21"/>
      <point x="398" y="12" type="curve" smooth="yes"/>
      <point x="398" y="4"/>
      <point x="407" y="0"/>
      <point x="421" y="0" type="curve" smooth="yes"/>
      <point x="440" y="0"/>
      <point x="470" y="1"/>
      <point x="500" y="1" type="curve" smooth="yes"/>
      <point x="535" y="1"/>
      <point x="587" y="-5"/>
      <point x="609" y="-5" type="curve" smooth="yes"/>
      <point x="623" y="-5"/>
      <point x="632" y="-3"/>
      <point x="632" y="5" type="curve" smooth="yes"/>
      <point x="632" y="14"/>
      <point x="622" y="24"/>
      <point x="599" y="28" type="curve" smooth="yes"/>
      <point x="542" y="38"/>
      <point x="528" y="42"/>
      <point x="498" y="128" type="curve" smooth="yes"/>
      <point x="465" y="223"/>
      <point x="384" y="457"/>
      <point x="333" y="652" type="curve" smooth="yes"/>
      <point x="329" y="669"/>
      <point x="329" y="678"/>
      <point x="329" y="683" type="curve" smooth="yes"/>
      <point x="329" y="686"/>
      <point x="325" y="686"/>
      <point x="325" y="683" type="curve" smooth="yes"/>
      <point x="325" y="679"/>
      <point x="323" y="659"/>
      <point x="322" y="651" type="curve" smooth="yes"/>
      <point x="321" y="643"/>
      <point x="319" y="640"/>
      <point x="318" y="636" type="curve"/>
      <point x="316" y="615"/>
      <point x="311" y="597"/>
      <point x="304" y="578" type="curve" smooth="yes"/>
      <point x="236" y="393"/>
      <point x="192" y="279"/>
      <point x="117" y="108" type="curve" smooth="yes"/>
      <point x="95" y="58"/>
      <point x="65" y="41"/>
      <point x="31" y="31" type="curve" smooth="yes"/>
      <point x="9" y="24"/>
      <point x="-2" y="17"/>
      <point x="-2" y="8" type="curve" smooth="yes"/>
      <point x="-2" y="0"/>
      <point x="10" y="-5"/>
      <point x="27" y="-5" type="curve" smooth="yes"/>
    </contour>
    <contour>
      <point x="248" y="282"/>
      <point x="240" y="282"/>
      <point x="240" y="289" type="curve" smooth="yes"/>
      <point x="240" y="291"/>
      <point x="241" y="294"/>
      <point x="242" y="297" type="curve"/>
      <point x="333" y="542" type="line" smooth="yes"/>
      <point x="337" y="553"/>
      <point x="339" y="559"/>
      <point x="341" y="559" type="curve" smooth="yes"/>
      <point x="344" y="559"/>
      <point x="346" y="553"/>
      <point x="350" y="541" type="curve" smooth="yes"/>
      <point x="428" y="297" type="line"/>
      <point x="429" y="293"/>
      <point x="430" y="289"/>
      <point x="430" y="287" type="curve" smooth="yes"/>
      <point x="430" y="282"/>
      <point x="426" y="282"/>
      <point x="416" y="282" type="curve" smooth="yes"/>
      <point x="261" y="282" type="line" smooth="yes"/>
    </contour>
  </outline>
</glyph>
<glyph name="B" format="1">
  <advance width="411"/>
  <unicode hex="0042"/>
  <outline>
    <contour>
      <point x="68" y="-5"/>
      <point x="81" y="0"/>
      <point x="117" y="0" type="curve" smooth="yes"/>
      <point x="145" y="0"/>
      <point x="170" y="-4"/>
      <point x="183" y="-4" type="curve" smooth="yes"/>
      <point x="235" y="-4"/>
      <point x="271" y="9"/>
      <point x="300" y="30" type="curve" smooth="yes"/>
      <point x="329" y="51"/>
      <point x="371" y="84"/>
      <point x="371" y="194" type="curve" smooth="yes"/>
      <point x="371" y="300"/>
      <point x="274" y="344"/>
      <point x="211" y="355" type="curve" smooth="yes"/>
      <point x="205" y="356"/>
      <point x="205" y="364"/>
      <point x="211" y="365" type="curve" smooth="yes"/>
      <point x="256" y="373"/>
      <point x="294" y="395"/>
      <point x="309" y="415" type="curve" smooth="yes"/>
      <point x="326" y="438"/>
      <point x="337" y="464"/>
      <point x="337" y="500" type="curve" smooth="yes"/>
      <point x="337" y="609"/>
      <point x="287" y="657"/>
      <point x="181" y="657" type="curve" smooth="yes"/>
      <point x="143" y="657"/>
      <point x="133" y="652"/>
      <point x="107" y="652" type="curve" smooth="yes"/>
      <point x="80" y="652"/>
      <point x="74" y="653"/>
      <point x="44" y="653" type="curve" smooth="yes"/>
      <point x="30" y="653"/>
      <point x="19" y="650"/>
      <point x="19" y="642" type="curve" smooth="yes"/>
      <point x="19" y="633"/>
      <point x="28" y="624"/>
      <point x="48" y="622" type="curve" smooth="yes"/>
      <point x="92" y="618"/>
      <point x="105" y="604"/>
      <point x="105" y="549" type="curve" smooth="yes"/>
      <point x="105" y="99" type="line" smooth="yes"/>
      <point x="105" y="47"/>
      <point x="98" y="37"/>
      <point x="45" y="25" type="curve" smooth="yes"/>
      <point x="27" y="21"/>
      <point x="19" y="15"/>
      <point x="19" y="6" type="curve" smooth="yes"/>
      <point x="19" y="-2"/>
      <point x="31" y="-5"/>
      <point x="40" y="-5" type="curve" smooth="yes"/>
    </contour>
    <contour>
      <point x="143" y="37"/>
      <point x="115" y="52"/>
      <point x="115" y="108" type="curve" smooth="yes"/>
      <point x="115" y="307" type="line" smooth="yes"/>
      <point x="115" y="320"/>
      <point x="129" y="343"/>
      <point x="172" y="343" type="curve" smooth="yes"/>
      <point x="232" y="343"/>
      <point x="268" y="328"/>
      <point x="286" y="318" type="curve" smooth="yes"/>
      <point x="313" y="303"/>
      <point x="360" y="266"/>
      <point x="360" y="189" type="curve" smooth="yes"/>
      <point x="360" y="103"/>
      <point x="282" y="37"/>
      <point x="194" y="37" type="curve" smooth="yes"/>
    </contour>
    <contour>
      <point x="145" y="371"/>
      <point x="115" y="373"/>
      <point x="115" y="408" type="curve" smooth="yes"/>
      <point x="115" y="582" type="line" smooth="yes"/>
      <point x="115" y="612"/>
      <point x="126" y="627"/>
      <point x="181" y="627" type="curve" smooth="yes"/>
      <point x="304" y="627"/>
      <point x="327" y="552"/>
      <point x="327" y="495" type="curve" smooth="yes"/>
      <point x="327" y="437"/>
      <point x="296" y="408"/>
      <point x="282" y="400" type="curve" smooth="yes"/>
      <point x="241" y="377"/>
      <point x="197" y="371"/>
      <point x="161" y="371" type="curve" smooth="yes"/>
    </contour>
  </outline>
</glyph>
<glyph name="C" format="1">
  <advance width="619"/>
  <unicode hex="0043"/>
  <outline>
    <contour>
      <point x="316" y="-15" type="curve" smooth="yes"/>
      <point x="381" y="-15"/>
      <point x="456" y="-6"/>
      <point x="505" y="14" type="curve" smooth="yes"/>
      <point x="526" y="21"/>
      <point x="527" y="22"/>
      <point x="537" y="41" type="curve" smooth="yes"/>
      <point x="549" y="70"/>
      <point x="564" y="122"/>
      <point x="564" y="138" type="curve" smooth="yes"/>
      <point x="564" y="159"/>
      <point x="539" y="158"/>
      <point x="530" y="141" type="curve" smooth="yes"/>
      <point x="486" y="62"/>
      <point x="427" y="16"/>
      <point x="331" y="16" type="curve" smooth="yes"/>
      <point x="165" y="16"/>
      <point x="56" y="184"/>
      <point x="56" y="347" type="curve" smooth="yes"/>
      <point x="56" y="494"/>
      <point x="168" y="632"/>
      <point x="324" y="632" type="curve" smooth="yes"/>
      <point x="379" y="632"/>
      <point x="428" y="620"/>
      <point x="461" y="598" type="curve" smooth="yes"/>
      <point x="496" y="574"/>
      <point x="510" y="538"/>
      <point x="523" y="487" type="curve" smooth="yes"/>
      <point x="529" y="464"/>
      <point x="558" y="473"/>
      <point x="557" y="488" type="curve" smooth="yes"/>
      <point x="555" y="540"/>
      <point x="551" y="572"/>
      <point x="548" y="603" type="curve" smooth="yes"/>
      <point x="546" y="621"/>
      <point x="539" y="632"/>
      <point x="519" y="637" type="curve" smooth="yes"/>
      <point x="451" y="654"/>
      <point x="418" y="663"/>
      <point x="341" y="663" type="curve" smooth="yes"/>
      <point x="185" y="663"/>
      <point x="46" y="517"/>
      <point x="46" y="323" type="curve" smooth="yes"/>
      <point x="46" y="119"/>
      <point x="180" y="-15"/>
    </contour>
  </outline>
</glyph>
<glyph name="D" format="1">
  <advance width="601"/>
  <unicode hex="0044"/>
  <outline>
    <contour>
      <point x="295" y="-7" type="curve" smooth="yes"/>
      <point x="444" y="-7"/>
      <point x="566" y="150"/>
      <point x="566" y="342" type="curve" smooth="yes"/>
      <point x="566" y="500"/>
      <point x="476" y="659"/>
      <point x="271" y="659" type="curve" smooth="yes"/>
      <point x="250" y="659"/>
      <point x="171" y="651"/>
      <point x="138" y="651" type="curve" smooth="yes"/>
      <point x="100" y="651"/>
      <point x="91" y="653"/>
      <point x="51" y="653" type="curve" smooth="yes"/>
      <point x="38" y="653"/>
      <point x="29" y="649"/>
      <point x="29" y="640" type="curve" smooth="yes"/>
      <point x="29" y="629"/>
      <point x="39" y="626"/>
      <point x="62" y="622" type="curve" smooth="yes"/>
      <point x="112" y="613"/>
      <point x="129" y="597"/>
      <point x="129" y="549" type="curve" smooth="yes"/>
      <point x="129" y="99" type="line" smooth="yes"/>
      <point x="129" y="51"/>
      <point x="112" y="33"/>
      <point x="62" y="24" type="curve" smooth="yes"/>
      <point x="39" y="20"/>
      <point x="29" y="19"/>
      <point x="29" y="8" type="curve" smooth="yes"/>
      <point x="29" y="-2"/>
      <point x="38" y="-5"/>
      <point x="51" y="-5" type="curve" smooth="yes"/>
      <point x="92" y="-5"/>
      <point x="102" y="0"/>
      <point x="133" y="0" type="curve" smooth="yes"/>
      <point x="195" y="0"/>
      <point x="279" y="-7"/>
    </contour>
    <contour>
      <point x="289" y="28" type="curve" smooth="yes"/>
      <point x="214" y="28"/>
      <point x="139" y="40"/>
      <point x="139" y="121" type="curve" smooth="yes"/>
      <point x="139" y="567" type="line" smooth="yes"/>
      <point x="139" y="627"/>
      <point x="188" y="628"/>
      <point x="275" y="628" type="curve" smooth="yes"/>
      <point x="412" y="628"/>
      <point x="554" y="517"/>
      <point x="554" y="325" type="curve" smooth="yes"/>
      <point x="554" y="151"/>
      <point x="445" y="28"/>
    </contour>
  </outline>
</glyph>
<glyph name="E" format="1">
  <advance width="494"/>
  <unicode hex="0045"/>
  <outline>
    <contour>
      <point x="62" y="-5" type="curve" smooth="yes"/>
      <point x="108" y="-5"/>
      <point x="121" y="1"/>
      <point x="159" y="1" type="curve" smooth="yes"/>
      <point x="244" y="1"/>
      <point x="316" y="-5"/>
      <point x="425" y="-5" type="curve" smooth="yes"/>
      <point x="432" y="-5"/>
      <point x="434" y="3"/>
      <point x="438" y="12" type="curve" smooth="yes"/>
      <point x="450" y="39"/>
      <point x="469" y="110"/>
      <point x="469" y="128" type="curve" smooth="yes"/>
      <point x="469" y="136"/>
      <point x="465" y="141"/>
      <point x="458" y="142" type="curve" smooth="yes"/>
      <point x="451" y="143"/>
      <point x="446" y="137"/>
      <point x="442" y="129" type="curve" smooth="yes"/>
      <point x="421" y="89"/>
      <point x="406" y="66"/>
      <point x="385" y="52" type="curve" smooth="yes"/>
      <point x="364" y="39"/>
      <point x="337" y="35"/>
      <point x="294" y="35" type="curve" smooth="yes"/>
      <point x="220" y="35" type="line" smooth="yes"/>
      <point x="175" y="35"/>
      <point x="154" y="51"/>
      <point x="154" y="102" type="curve" smooth="yes"/>
      <point x="154" y="294" type="line" smooth="yes"/>
      <point x="154" y="317"/>
      <point x="165" y="320"/>
      <point x="188" y="320" type="curve" smooth="yes"/>
      <point x="281" y="320" type="line" smooth="yes"/>
      <point x="307" y="320"/>
      <point x="319" y="306"/>
      <point x="327" y="275" type="curve" smooth="yes"/>
      <point x="332" y="254"/>
      <point x="340" y="243"/>
      <point x="350" y="243" type="curve" smooth="yes"/>
      <point x="358" y="243"/>
      <point x="359" y="251"/>
      <point x="359" y="260" type="curve" smooth="yes"/>
      <point x="359" y="268"/>
      <point x="357" y="317"/>
      <point x="357" y="337" type="curve" smooth="yes"/>
      <point x="357" y="353"/>
      <point x="360" y="398"/>
      <point x="360" y="407" type="curve" smooth="yes"/>
      <point x="360" y="417"/>
      <point x="352" y="423"/>
      <point x="347" y="423" type="curve" smooth="yes"/>
      <point x="339" y="423"/>
      <point x="333" y="416"/>
      <point x="329" y="401" type="curve" smooth="yes"/>
      <point x="319" y="364"/>
      <point x="310" y="352"/>
      <point x="271" y="352" type="curve" smooth="yes"/>
      <point x="172" y="352" type="line" smooth="yes"/>
      <point x="162" y="352"/>
      <point x="154" y="362"/>
      <point x="154" y="374" type="curve" smooth="yes"/>
      <point x="154" y="586" type="line" smooth="yes"/>
      <point x="154" y="605"/>
      <point x="179" y="618"/>
      <point x="190" y="618" type="curve" smooth="yes"/>
      <point x="321" y="618" type="line" smooth="yes"/>
      <point x="346" y="618"/>
      <point x="369" y="612"/>
      <point x="388" y="591" type="curve" smooth="yes"/>
      <point x="397" y="581"/>
      <point x="403" y="558"/>
      <point x="410" y="536" type="curve" smooth="yes"/>
      <point x="412" y="529"/>
      <point x="414" y="526"/>
      <point x="421" y="526" type="curve" smooth="yes"/>
      <point x="427" y="526"/>
      <point x="435" y="529"/>
      <point x="435" y="541" type="curve" smooth="yes"/>
      <point x="435" y="568"/>
      <point x="427" y="606"/>
      <point x="420" y="644" type="curve"/>
      <point x="419" y="651"/>
      <point x="411" y="653"/>
      <point x="405" y="653" type="curve" smooth="yes"/>
      <point x="401" y="653"/>
      <point x="371" y="652"/>
      <point x="333" y="651" type="curve" smooth="yes"/>
      <point x="298" y="651"/>
      <point x="255" y="650"/>
      <point x="218" y="650" type="curve" smooth="yes"/>
      <point x="159" y="650"/>
      <point x="132" y="653"/>
      <point x="68" y="653" type="curve" smooth="yes"/>
      <point x="54" y="653"/>
      <point x="44" y="650"/>
      <point x="44" y="642" type="curve" smooth="yes"/>
      <point x="44" y="633"/>
      <point x="54" y="626"/>
      <point x="77" y="622" type="curve" smooth="yes"/>
      <point x="127" y="613"/>
      <point x="144" y="597"/>
      <point x="144" y="549" type="curve" smooth="yes"/>
      <point x="144" y="99" type="line" smooth="yes"/>
      <point x="144" y="51"/>
      <point x="120" y="33"/>
      <point x="70" y="24" type="curve" smooth="yes"/>
      <point x="47" y="20"/>
      <point x="37" y="15"/>
      <point x="37" y="6" type="curve" smooth="yes"/>
      <point x="37" y="-2"/>
      <point x="47" y="-5"/>
    </contour>
  </outline>
</glyph>
<glyph name="G" format="1">
  <advance width="642"/>
  <unicode hex="0047"/>
  <outline>
    <contour>
      <point x="343" y="-14" type="curve" smooth="yes"/>
      <point x="452" y="-14"/>
      <point x="530" y="50"/>
      <point x="547" y="53" type="curve" smooth="yes"/>
      <point x="557" y="55"/>
      <point x="557" y="67"/>
      <point x="557" y="72" type="curve" smooth="yes"/>
      <point x="557" y="77"/>
      <point x="548" y="82"/>
      <point x="544" y="89" type="curve"/>
      <point x="541" y="95"/>
      <point x="538" y="98"/>
      <point x="538" y="105" type="curve" smooth="yes"/>
      <point x="538" y="132" type="line" smooth="yes"/>
      <point x="538" y="157"/>
      <point x="539" y="178"/>
      <point x="543" y="207" type="curve" smooth="yes"/>
      <point x="547" y="234"/>
      <point x="556" y="247"/>
      <point x="585" y="256" type="curve" smooth="yes"/>
      <point x="595" y="259"/>
      <point x="606" y="266"/>
      <point x="606" y="274" type="curve" smooth="yes"/>
      <point x="606" y="287"/>
      <point x="590" y="290"/>
      <point x="585" y="290" type="curve" smooth="yes"/>
      <point x="558" y="290"/>
      <point x="545" y="286"/>
      <point x="519" y="286" type="curve" smooth="yes"/>
      <point x="478" y="286"/>
      <point x="462" y="290"/>
      <point x="426" y="290" type="curve" smooth="yes"/>
      <point x="422" y="290"/>
      <point x="407" y="283"/>
      <point x="407" y="273" type="curve" smooth="yes"/>
      <point x="407" y="263"/>
      <point x="422" y="256"/>
      <point x="427" y="256" type="curve" smooth="yes"/>
      <point x="447" y="256"/>
      <point x="508" y="247"/>
      <point x="525" y="225" type="curve" smooth="yes"/>
      <point x="529" y="220"/>
      <point x="530" y="209"/>
      <point x="530" y="195" type="curve" smooth="yes"/>
      <point x="530" y="177"/>
      <point x="528" y="154"/>
      <point x="528" y="137" type="curve" smooth="yes"/>
      <point x="528" y="102"/>
      <point x="511" y="75"/>
      <point x="494" y="60" type="curve" smooth="yes"/>
      <point x="480" y="48"/>
      <point x="443" y="23"/>
      <point x="355" y="23" type="curve" smooth="yes"/>
      <point x="204" y="23"/>
      <point x="57" y="134"/>
      <point x="57" y="324" type="curve" smooth="yes"/>
      <point x="57" y="482"/>
      <point x="162" y="625"/>
      <point x="317" y="625" type="curve" smooth="yes"/>
      <point x="412" y="625"/>
      <point x="463" y="588"/>
      <point x="476" y="572" type="curve" smooth="yes"/>
      <point x="492" y="553"/>
      <point x="499" y="540"/>
      <point x="507" y="519" type="curve"/>
      <point x="511" y="507"/>
      <point x="516" y="492"/>
      <point x="530" y="492" type="curve" smooth="yes"/>
      <point x="538" y="492"/>
      <point x="545" y="502"/>
      <point x="545" y="512" type="curve" smooth="yes"/>
      <point x="545" y="538"/>
      <point x="540" y="579"/>
      <point x="535" y="618" type="curve" smooth="yes"/>
      <point x="534" y="625"/>
      <point x="532" y="627"/>
      <point x="526" y="630" type="curve" smooth="yes"/>
      <point x="499" y="643"/>
      <point x="372" y="663"/>
      <point x="326" y="663" type="curve" smooth="yes"/>
      <point x="174" y="663"/>
      <point x="45" y="509"/>
      <point x="45" y="311" type="curve" smooth="yes"/>
      <point x="45" y="126"/>
      <point x="184" y="-14"/>
    </contour>
  </outline>
</glyph>
<glyph name="H" format="1">
  <advance width="661"/>
  <unicode hex="0048"/>
  <outline>
    <contour>
      <point x="66" y="-3" type="curve" smooth="yes"/>
      <point x="101" y="-3"/>
      <point x="118" y="-1"/>
      <point x="135" y="-1" type="curve" smooth="yes"/>
      <point x="154" y="-1"/>
      <point x="170" y="-3"/>
      <point x="205" y="-3" type="curve" smooth="yes"/>
      <point x="225" y="-3"/>
      <point x="234" y="2"/>
      <point x="234" y="10" type="curve" smooth="yes"/>
      <point x="234" y="19"/>
      <point x="224" y="24"/>
      <point x="201" y="28" type="curve" smooth="yes"/>
      <point x="160" y="35"/>
      <point x="133" y="49"/>
      <point x="133" y="99" type="curve" smooth="yes"/>
      <point x="133" y="291" type="line" smooth="yes"/>
      <point x="133" y="302"/>
      <point x="138" y="307"/>
      <point x="147" y="307" type="curve" smooth="yes"/>
      <point x="511" y="307" type="line" smooth="yes"/>
      <point x="523" y="307"/>
      <point x="525" y="300"/>
      <point x="525" y="292" type="curve" smooth="yes"/>
      <point x="525" y="99" type="line" smooth="yes"/>
      <point x="525" y="53"/>
      <point x="516" y="38"/>
      <point x="457" y="28" type="curve" smooth="yes"/>
      <point x="434" y="24"/>
      <point x="424" y="19"/>
      <point x="424" y="10" type="curve" smooth="yes"/>
      <point x="424" y="2"/>
      <point x="433" y="-3"/>
      <point x="453" y="-3" type="curve" smooth="yes"/>
      <point x="488" y="-3"/>
      <point x="504" y="-1"/>
      <point x="523" y="-1" type="curve" smooth="yes"/>
      <point x="540" y="-1"/>
      <point x="557" y="-3"/>
      <point x="592" y="-3" type="curve" smooth="yes"/>
      <point x="612" y="-3"/>
      <point x="621" y="2"/>
      <point x="621" y="10" type="curve" smooth="yes"/>
      <point x="621" y="19"/>
      <point x="611" y="24"/>
      <point x="588" y="28" type="curve" smooth="yes"/>
      <point x="541" y="36"/>
      <point x="535" y="50"/>
      <point x="535" y="99" type="curve" smooth="yes"/>
      <point x="535" y="551" type="line" smooth="yes"/>
      <point x="535" y="597"/>
      <point x="538" y="613"/>
      <point x="588" y="622" type="curve" smooth="yes"/>
      <point x="611" y="626"/>
      <point x="621" y="631"/>
      <point x="621" y="640" type="curve" smooth="yes"/>
      <point x="621" y="648"/>
      <point x="612" y="653"/>
      <point x="592" y="653" type="curve" smooth="yes"/>
      <point x="557" y="653"/>
      <point x="540" y="651"/>
      <point x="523" y="651" type="curve" smooth="yes"/>
      <point x="504" y="651"/>
      <point x="488" y="653"/>
      <point x="453" y="653" type="curve" smooth="yes"/>
      <point x="433" y="653"/>
      <point x="424" y="648"/>
      <point x="424" y="640" type="curve" smooth="yes"/>
      <point x="424" y="631"/>
      <point x="434" y="626"/>
      <point x="457" y="622" type="curve" smooth="yes"/>
      <point x="512" y="612"/>
      <point x="525" y="588"/>
      <point x="525" y="551" type="curve" smooth="yes"/>
      <point x="525" y="359" type="line" smooth="yes"/>
      <point x="525" y="350"/>
      <point x="520" y="345"/>
      <point x="511" y="345" type="curve" smooth="yes"/>
      <point x="147" y="345" type="line" smooth="yes"/>
      <point x="138" y="345"/>
      <point x="133" y="349"/>
      <point x="133" y="361" type="curve" smooth="yes"/>
      <point x="133" y="551" type="line" smooth="yes"/>
      <point x="133" y="597"/>
      <point x="157" y="614"/>
      <point x="201" y="622" type="curve" smooth="yes"/>
      <point x="224" y="626"/>
      <point x="234" y="631"/>
      <point x="234" y="640" type="curve" smooth="yes"/>
      <point x="234" y="648"/>
      <point x="225" y="653"/>
      <point x="205" y="653" type="curve" smooth="yes"/>
      <point x="170" y="653"/>
      <point x="154" y="651"/>
      <point x="135" y="651" type="curve" smooth="yes"/>
      <point x="118" y="651"/>
      <point x="101" y="653"/>
      <point x="66" y="653" type="curve" smooth="yes"/>
      <point x="46" y="653"/>
      <point x="37" y="648"/>
      <point x="37" y="640" type="curve" smooth="yes"/>
      <point x="37" y="631"/>
      <point x="47" y="626"/>
      <point x="70" y="622" type="curve" smooth="yes"/>
      <point x="120" y="613"/>
      <point x="123" y="597"/>
      <point x="123" y="551" type="curve" smooth="yes"/>
      <point x="123" y="99" type="line" smooth="yes"/>
      <point x="123" y="48"/>
      <point x="119" y="37"/>
      <point x="70" y="28" type="curve" smooth="yes"/>
      <point x="47" y="24"/>
      <point x="37" y="19"/>
      <point x="37" y="10" type="curve" smooth="yes"/>
      <point x="37" y="2"/>
      <point x="46" y="-3"/>
    </contour>
  </outline>
</glyph>
<glyph name="J" format="1">
  <advance width="284"/>
  <unicode hex="004A"/>
  <outline>
    <contour>
      <point x="8" y="-200" type="curve" smooth="yes"/>
      <point x="66" y="-200"/>
      <point x="99" y="-173"/>
      <point x="118" y="-132" type="curve" smooth="yes"/>
      <point x="136" y="-91"/>
      <point x="140" y="-37"/>
      <point x="140" y="20" type="curve" smooth="yes"/>
      <point x="140" y="550" type="line" smooth="yes"/>
      <point x="140" y="597"/>
      <point x="161" y="613"/>
      <point x="211" y="622" type="curve" smooth="yes"/>
      <point x="234" y="626"/>
      <point x="244" y="633"/>
      <point x="244" y="642" type="curve" smooth="yes"/>
      <point x="244" y="650"/>
      <point x="232" y="653"/>
      <point x="215" y="653" type="curve" smooth="yes"/>
      <point x="178" y="653"/>
      <point x="169" y="650"/>
      <point x="140" y="650" type="curve" smooth="yes"/>
      <point x="108" y="650"/>
      <point x="96" y="653"/>
      <point x="59" y="653" type="curve" smooth="yes"/>
      <point x="42" y="653"/>
      <point x="30" y="650"/>
      <point x="30" y="642" type="curve" smooth="yes"/>
      <point x="30" y="633"/>
      <point x="40" y="626"/>
      <point x="63" y="622" type="curve" smooth="yes"/>
      <point x="113" y="613"/>
      <point x="130" y="597"/>
      <point x="130" y="550" type="curve" smooth="yes"/>
      <point x="130" y="-1" type="line" smooth="yes"/>
      <point x="130" y="-98"/>
      <point x="111" y="-159"/>
      <point x="64" y="-159" type="curve" smooth="yes"/>
      <point x="47" y="-159"/>
      <point x="34" y="-151"/>
      <point x="17" y="-129" type="curve" smooth="yes"/>
      <point x="3" y="-111"/>
      <point x="-13" y="-104"/>
      <point x="-30" y="-104" type="curve" smooth="yes"/>
      <point x="-45" y="-104"/>
      <point x="-69" y="-128"/>
      <point x="-69" y="-151" type="curve" smooth="yes"/>
      <point x="-69" y="-182"/>
      <point x="-43" y="-200"/>
    </contour>
  </outline>
</glyph>
<glyph name="K" format="1">
  <advance width="507"/>
  <unicode hex="004B"/>
  <outline>
    <contour>
      <point x="53" y="-5" type="curve" smooth="yes"/>
      <point x="93" y="-5"/>
      <point x="111" y="2"/>
      <point x="148" y="2" type="curve" smooth="yes"/>
      <point x="176" y="2"/>
      <point x="181" y="-5"/>
      <point x="221" y="-5" type="curve" smooth="yes"/>
      <point x="234" y="-5"/>
      <point x="243" y="-2"/>
      <point x="243" y="6" type="curve" smooth="yes"/>
      <point x="243" y="15"/>
      <point x="233" y="20"/>
      <point x="210" y="24" type="curve" smooth="yes"/>
      <point x="160" y="33"/>
      <point x="148" y="67"/>
      <point x="146" y="110" type="curve" smooth="yes"/>
      <point x="142" y="190"/>
      <point x="141" y="242"/>
      <point x="141" y="305" type="curve" smooth="yes"/>
      <point x="141" y="312"/>
      <point x="140" y="326"/>
      <point x="145" y="326" type="curve" smooth="yes"/>
      <point x="150" y="326"/>
      <point x="160" y="317"/>
      <point x="168" y="309" type="curve"/>
      <point x="383" y="72" type="line" smooth="yes"/>
      <point x="391" y="63"/>
      <point x="398" y="55"/>
      <point x="398" y="47" type="curve" smooth="yes"/>
      <point x="398" y="39"/>
      <point x="390" y="32"/>
      <point x="370" y="27" type="curve"/>
      <point x="351" y="23"/>
      <point x="343" y="19"/>
      <point x="343" y="10" type="curve" smooth="yes"/>
      <point x="343" y="2"/>
      <point x="351" y="-1"/>
      <point x="361" y="-1" type="curve" smooth="yes"/>
      <point x="389" y="-1"/>
      <point x="395" y="0"/>
      <point x="411" y="0" type="curve" smooth="yes"/>
      <point x="444" y="0"/>
      <point x="460" y="-5"/>
      <point x="496" y="-5" type="curve" smooth="yes"/>
      <point x="506" y="-5"/>
      <point x="514" y="-2"/>
      <point x="514" y="6" type="curve" smooth="yes"/>
      <point x="514" y="15"/>
      <point x="504" y="19"/>
      <point x="481" y="24" type="curve" smooth="yes"/>
      <point x="442" y="32"/>
      <point x="421" y="46"/>
      <point x="377" y="95" type="curve" smooth="yes"/>
      <point x="173" y="321" type="line" smooth="yes"/>
      <point x="167" y="328"/>
      <point x="163" y="334"/>
      <point x="168" y="339" type="curve"/>
      <point x="238" y="416"/>
      <point x="324" y="516"/>
      <point x="394" y="580" type="curve" smooth="yes"/>
      <point x="424" y="607"/>
      <point x="447" y="621"/>
      <point x="467" y="624" type="curve" smooth="yes"/>
      <point x="490" y="628"/>
      <point x="500" y="635"/>
      <point x="500" y="644" type="curve" smooth="yes"/>
      <point x="500" y="651"/>
      <point x="492" y="655"/>
      <point x="481" y="655" type="curve" smooth="yes"/>
      <point x="469" y="655"/>
      <point x="462" y="651"/>
      <point x="412" y="651" type="curve" smooth="yes"/>
      <point x="364" y="651" type="line" smooth="yes"/>
      <point x="349" y="651"/>
      <point x="338" y="648"/>
      <point x="338" y="640" type="curve" smooth="yes"/>
      <point x="338" y="631"/>
      <point x="346" y="626"/>
      <point x="364" y="621" type="curve" smooth="yes"/>
      <point x="377" y="618"/>
      <point x="381" y="612"/>
      <point x="381" y="601" type="curve" smooth="yes"/>
      <point x="381" y="590"/>
      <point x="373" y="580"/>
      <point x="360" y="566" type="curve" smooth="yes"/>
      <point x="171" y="359" type="line"/>
      <point x="164" y="351"/>
      <point x="153" y="341"/>
      <point x="146" y="341" type="curve" smooth="yes"/>
      <point x="141" y="341"/>
      <point x="141" y="355"/>
      <point x="141" y="360" type="curve" smooth="yes"/>
      <point x="141" y="551" type="line" smooth="yes"/>
      <point x="141" y="590"/>
      <point x="145" y="613"/>
      <point x="195" y="622" type="curve" smooth="yes"/>
      <point x="218" y="626"/>
      <point x="228" y="633"/>
      <point x="228" y="642" type="curve" smooth="yes"/>
      <point x="228" y="650"/>
      <point x="219" y="653"/>
      <point x="207" y="653" type="curve" smooth="yes"/>
      <point x="167" y="653"/>
      <point x="163" y="651"/>
      <point x="135" y="651" type="curve" smooth="yes"/>
      <point x="103" y="651"/>
      <point x="92" y="653"/>
      <point x="52" y="653" type="curve" smooth="yes"/>
      <point x="40" y="653"/>
      <point x="31" y="650"/>
      <point x="31" y="642" type="curve" smooth="yes"/>
      <point x="31" y="633"/>
      <point x="41" y="626"/>
      <point x="64" y="622" type="curve" smooth="yes"/>
      <point x="114" y="613"/>
      <point x="131" y="597"/>
      <point x="131" y="551" type="curve" smooth="yes"/>
      <point x="131" y="101" type="line" smooth="yes"/>
      <point x="131" y="51"/>
      <point x="114" y="33"/>
      <point x="64" y="24" type="curve" smooth="yes"/>
      <point x="41" y="20"/>
      <point x="31" y="15"/>
      <point x="31" y="6" type="curve" smooth="yes"/>
      <point x="31" y="-2"/>
      <point x="40" y="-5"/>
    </contour>
  </outline>
</glyph>
<glyph name="L" format="1">
  <advance width="540"/>
  <unicode hex="004C"/>
  <outline>
    <contour>
      <point x="61" y="-5" type="curve"/>
      <point x="61" y="-5"/>
      <point x="135" y="0"/>
      <point x="178" y="0" type="curve" smooth="yes"/>
      <point x="265" y="0"/>
      <point x="359" y="-5"/>
      <point x="475" y="-5" type="curve" smooth="yes"/>
      <point x="484" y="-5"/>
      <point x="486" y="3"/>
      <point x="487" y="12" type="curve" smooth="yes"/>
      <point x="491" y="54"/>
      <point x="500" y="87"/>
      <point x="514" y="139" type="curve"/>
      <point x="514" y="140"/>
      <point x="515" y="142"/>
      <point x="515" y="144" type="curve" smooth="yes"/>
      <point x="515" y="152"/>
      <point x="511" y="162"/>
      <point x="503" y="162" type="curve" smooth="yes"/>
      <point x="494" y="162"/>
      <point x="484" y="140"/>
      <point x="481" y="132" type="curve" smooth="yes"/>
      <point x="464" y="96"/>
      <point x="455" y="84"/>
      <point x="429" y="61" type="curve" smooth="yes"/>
      <point x="416" y="49"/>
      <point x="387" y="35"/>
      <point x="351" y="35" type="curve" smooth="yes"/>
      <point x="227" y="35" type="line" smooth="yes"/>
      <point x="161" y="35"/>
      <point x="150" y="55"/>
      <point x="150" y="96" type="curve" smooth="yes"/>
      <point x="150" y="567" type="line" smooth="yes"/>
      <point x="150" y="606"/>
      <point x="189" y="613"/>
      <point x="239" y="622" type="curve" smooth="yes"/>
      <point x="262" y="626"/>
      <point x="272" y="633"/>
      <point x="272" y="642" type="curve" smooth="yes"/>
      <point x="272" y="650"/>
      <point x="263" y="653"/>
      <point x="250" y="653" type="curve" smooth="yes"/>
      <point x="209" y="653"/>
      <point x="191" y="650"/>
      <point x="154" y="650" type="curve" smooth="yes"/>
      <point x="120" y="650"/>
      <point x="109" y="653"/>
      <point x="68" y="653" type="curve" smooth="yes"/>
      <point x="55" y="653"/>
      <point x="46" y="650"/>
      <point x="46" y="642" type="curve" smooth="yes"/>
      <point x="46" y="633"/>
      <point x="56" y="626"/>
      <point x="79" y="622" type="curve" smooth="yes"/>
      <point x="129" y="613"/>
      <point x="140" y="608"/>
      <point x="140" y="560" type="curve" smooth="yes"/>
      <point x="140" y="96" type="line" smooth="yes"/>
      <point x="140" y="52"/>
      <point x="111" y="34"/>
      <point x="59" y="24" type="curve"/>
      <point x="55" y="23"/>
      <point x="37" y="19"/>
      <point x="37" y="7" type="curve" smooth="yes"/>
      <point x="37" y="0"/>
      <point x="46" y="-5"/>
    </contour>
  </outline>
</glyph>
<glyph name="N" format="1">
  <advance width="792"/>
  <unicode hex="004E"/>
  <outline>
    <contour>
      <point x="678" y="-17"/>
      <point x="689" y="-13"/>
      <point x="689" y="8" type="curve" smooth="yes"/>
      <point x="689" y="21"/>
      <point x="684" y="57"/>
      <point x="684" y="105" type="curve" smooth="yes"/>
      <point x="684" y="263"/>
      <point x="685" y="550"/>
      <point x="686" y="568" type="curve" smooth="yes"/>
      <point x="688" y="601"/>
      <point x="699" y="613"/>
      <point x="749" y="622" type="curve" smooth="yes"/>
      <point x="772" y="626"/>
      <point x="782" y="633"/>
      <point x="782" y="642" type="curve" smooth="yes"/>
      <point x="782" y="650"/>
      <point x="770" y="653"/>
      <point x="753" y="653" type="curve" smooth="yes"/>
      <point x="692" y="653"/>
      <point x="686" y="650"/>
      <point x="638" y="650" type="curve" smooth="yes"/>
      <point x="619" y="650"/>
      <point x="600" y="650"/>
      <point x="581" y="650" type="curve" smooth="yes"/>
      <point x="564" y="650"/>
      <point x="540" y="647"/>
      <point x="540" y="639" type="curve" smooth="yes"/>
      <point x="540" y="630"/>
      <point x="562" y="623"/>
      <point x="585" y="619" type="curve" smooth="yes"/>
      <point x="607" y="615"/>
      <point x="642" y="590"/>
      <point x="643" y="564" type="curve"/>
      <point x="643" y="381"/>
      <point x="644" y="76"/>
      <point x="641" y="38" type="curve" smooth="yes"/>
      <point x="640" y="23"/>
      <point x="636" y="17"/>
      <point x="631" y="17" type="curve" smooth="yes"/>
      <point x="623" y="17"/>
      <point x="611" y="31"/>
      <point x="606" y="37" type="curve" smooth="yes"/>
      <point x="586" y="61"/>
      <point x="232" y="609"/>
      <point x="213" y="636" type="curve" smooth="yes"/>
      <point x="206" y="645"/>
      <point x="201" y="653"/>
      <point x="189" y="653" type="curve" smooth="yes"/>
      <point x="117" y="653"/>
      <point x="113" y="656"/>
      <point x="35" y="658" type="curve" smooth="yes"/>
      <point x="28" y="658"/>
      <point x="12" y="656"/>
      <point x="12" y="644" type="curve" smooth="yes"/>
      <point x="12" y="632"/>
      <point x="37" y="622"/>
      <point x="43" y="620" type="curve" smooth="yes"/>
      <point x="102" y="601"/>
      <point x="142" y="578"/>
      <point x="142" y="507" type="curve" smooth="yes"/>
      <point x="142" y="342"/>
      <point x="132" y="182"/>
      <point x="124" y="107" type="curve" smooth="yes"/>
      <point x="120" y="66"/>
      <point x="104" y="35"/>
      <point x="66" y="25" type="curve" smooth="yes"/>
      <point x="43" y="19"/>
      <point x="33" y="15"/>
      <point x="33" y="6" type="curve" smooth="yes"/>
      <point x="33" y="-2"/>
      <point x="45" y="-5"/>
      <point x="62" y="-5" type="curve" smooth="yes"/>
      <point x="116" y="-5"/>
      <point x="117" y="0"/>
      <point x="153" y="0" type="curve" smooth="yes"/>
      <point x="190" y="0"/>
      <point x="193" y="-5"/>
      <point x="247" y="-5" type="curve" smooth="yes"/>
      <point x="264" y="-5"/>
      <point x="276" y="-2"/>
      <point x="276" y="6" type="curve" smooth="yes"/>
      <point x="276" y="15"/>
      <point x="266" y="20"/>
      <point x="243" y="24" type="curve" smooth="yes"/>
      <point x="193" y="33"/>
      <point x="179" y="68"/>
      <point x="179" y="104" type="curve" smooth="yes"/>
      <point x="179" y="227"/>
      <point x="182" y="511"/>
      <point x="182" y="610" type="curve" smooth="yes"/>
      <point x="182" y="618"/>
      <point x="184" y="631"/>
      <point x="191" y="631" type="curve" smooth="yes"/>
      <point x="196" y="631"/>
      <point x="202" y="627"/>
      <point x="212" y="615" type="curve" smooth="yes"/>
      <point x="235" y="587"/>
      <point x="568" y="71"/>
      <point x="586" y="46" type="curve" smooth="yes"/>
      <point x="618" y="2"/>
      <point x="656" y="-17"/>
      <point x="668" y="-17" type="curve" smooth="yes"/>
    </contour>
  </outline>
</glyph>
<glyph name="Q" format="1">
  <advance width="595"/>
  <unicode hex="0051"/>
  <outline>
    <contour>
      <point x="704" y="-248" type="curve" smooth="yes"/>
      <point x="739" y="-248"/>
      <point x="779" y="-238"/>
      <point x="816" y="-215" type="curve" smooth="yes"/>
      <point x="830" y="-206"/>
      <point x="833" y="-201"/>
      <point x="833" y="-189" type="curve" smooth="yes"/>
      <point x="833" y="-183"/>
      <point x="826" y="-181"/>
      <point x="819" y="-181" type="curve" smooth="yes"/>
      <point x="811" y="-181"/>
      <point x="802" y="-183"/>
      <point x="794" y="-185" type="curve"/>
      <point x="783" y="-189"/>
      <point x="753" y="-193"/>
      <point x="722" y="-193" type="curve" smooth="yes"/>
      <point x="626" y="-193"/>
      <point x="537" y="-189"/>
      <point x="450" y="-130" type="curve" smooth="yes"/>
      <point x="396" y="-94"/>
      <point x="371" y="-70"/>
      <point x="320" y="-28" type="curve"/>
      <point x="316" y="-25"/>
      <point x="315" y="-22"/>
      <point x="315" y="-19" type="curve" smooth="yes"/>
      <point x="315" y="-17"/>
      <point x="317" y="-14"/>
      <point x="326" y="-12" type="curve"/>
      <point x="482" y="6"/>
      <point x="550" y="159"/>
      <point x="550" y="303" type="curve" smooth="yes"/>
      <point x="550" y="527"/>
      <point x="426" y="664"/>
      <point x="301" y="664" type="curve" smooth="yes"/>
      <point x="128" y="664"/>
      <point x="45" y="509"/>
      <point x="45" y="347" type="curve" smooth="yes"/>
      <point x="45" y="154"/>
      <point x="138" y="23"/>
      <point x="247" y="-7" type="curve" smooth="yes"/>
      <point x="281" y="-16"/>
      <point x="310" y="-34"/>
      <point x="338" y="-55" type="curve" smooth="yes"/>
      <point x="387" y="-92"/>
      <point x="433" y="-133"/>
      <point x="488" y="-170" type="curve" smooth="yes"/>
      <point x="563" y="-223"/>
      <point x="612" y="-248"/>
    </contour>
    <contour>
      <point x="308" y="26" type="curve" smooth="yes"/>
      <point x="141" y="26"/>
      <point x="57" y="179"/>
      <point x="57" y="365" type="curve" smooth="yes"/>
      <point x="57" y="521"/>
      <point x="135" y="622"/>
      <point x="286" y="622" type="curve" smooth="yes"/>
      <point x="453" y="622"/>
      <point x="538" y="471"/>
      <point x="538" y="286" type="curve" smooth="yes"/>
      <point x="538" y="129"/>
      <point x="461" y="26"/>
    </contour>
  </outline>
</glyph>
<glyph name="S" format="1">
  <advance width="398"/>
  <unicode hex="0053"/>
  <outline>
    <contour>
      <point x="176" y="-16" type="curve" smooth="yes"/>
      <point x="284" y="-16"/>
      <point x="355" y="55"/>
      <point x="355" y="156" type="curve" smooth="yes"/>
      <point x="355" y="256"/>
      <point x="280" y="297"/>
      <point x="210" y="340" type="curve" smooth="yes"/>
      <point x="135" y="386"/>
      <point x="70" y="444"/>
      <point x="70" y="516" type="curve" smooth="yes"/>
      <point x="70" y="600"/>
      <point x="125" y="630"/>
      <point x="185" y="630" type="curve" smooth="yes"/>
      <point x="242" y="630"/>
      <point x="278" y="592"/>
      <point x="305" y="521" type="curve" smooth="yes"/>
      <point x="308" y="513"/>
      <point x="321" y="507"/>
      <point x="333" y="507" type="curve" smooth="yes"/>
      <point x="341" y="507"/>
      <point x="348" y="510"/>
      <point x="348" y="518" type="curve" smooth="yes"/>
      <point x="348" y="550"/>
      <point x="336" y="589"/>
      <point x="328" y="617" type="curve" smooth="yes"/>
      <point x="325" y="627"/>
      <point x="317" y="638"/>
      <point x="307" y="642" type="curve"/>
      <point x="290" y="651"/>
      <point x="263" y="664"/>
      <point x="225" y="664" type="curve" smooth="yes"/>
      <point x="94" y="664"/>
      <point x="60" y="587"/>
      <point x="60" y="507" type="curve" smooth="yes"/>
      <point x="60" y="430"/>
      <point x="147" y="370"/>
      <point x="225" y="321" type="curve" smooth="yes"/>
      <point x="319" y="263"/>
      <point x="344" y="219"/>
      <point x="344" y="151" type="curve" smooth="yes"/>
      <point x="344" y="63"/>
      <point x="287" y="17"/>
      <point x="218" y="17" type="curve" smooth="yes"/>
      <point x="161" y="17"/>
      <point x="102" y="57"/>
      <point x="76" y="160" type="curve" smooth="yes"/>
      <point x="74" y="168"/>
      <point x="67" y="171"/>
      <point x="60" y="171" type="curve" smooth="yes"/>
      <point x="49" y="171"/>
      <point x="40" y="166"/>
      <point x="40" y="157" type="curve"/>
      <point x="42" y="129"/>
      <point x="43" y="79"/>
      <point x="50" y="52" type="curve" smooth="yes"/>
      <point x="52" y="44"/>
      <point x="57" y="37"/>
      <point x="61" y="32" type="curve"/>
      <point x="91" y="1"/>
      <point x="130" y="-16"/>
    </contour>
  </outline>
</glyph>
<glyph name="T" format="1">
  <advance width="600"/>
  <unicode hex="0054"/>
  <outline>
    <contour>
      <point x="208" y="-5" type="curve" smooth="yes"/>
      <point x="249" y="-5"/>
      <point x="267" y="0"/>
      <point x="306" y="0" type="curve" smooth="yes"/>
      <point x="341" y="0"/>
      <point x="354" y="-5"/>
      <point x="396" y="-5" type="curve" smooth="yes"/>
      <point x="409" y="-5"/>
      <point x="418" y="-2"/>
      <point x="418" y="6" type="curve" smooth="yes"/>
      <point x="418" y="15"/>
      <point x="408" y="20"/>
      <point x="385" y="24" type="curve" smooth="yes"/>
      <point x="335" y="33"/>
      <point x="306" y="54"/>
      <point x="306" y="102" type="curve" smooth="yes"/>
      <point x="306" y="543" type="line" smooth="yes"/>
      <point x="306" y="607"/>
      <point x="311" y="610"/>
      <point x="356" y="610" type="curve" smooth="yes"/>
      <point x="457" y="610" type="line" smooth="yes"/>
      <point x="521" y="610"/>
      <point x="544" y="592"/>
      <point x="549" y="564" type="curve" smooth="yes"/>
      <point x="554" y="538"/>
      <point x="558" y="523"/>
      <point x="568" y="523" type="curve" smooth="yes"/>
      <point x="578" y="523"/>
      <point x="584" y="543"/>
      <point x="584" y="555" type="curve" smooth="yes"/>
      <point x="584" y="567" type="line" smooth="yes"/>
      <point x="584" y="593"/>
      <point x="588" y="589"/>
      <point x="594" y="626" type="curve" smooth="yes"/>
      <point x="595" y="632"/>
      <point x="598" y="647"/>
      <point x="598" y="654" type="curve" smooth="yes"/>
      <point x="598" y="664"/>
      <point x="595" y="677"/>
      <point x="591" y="677" type="curve" smooth="yes"/>
      <point x="575" y="677"/>
      <point x="568" y="665"/>
      <point x="552" y="657" type="curve" smooth="yes"/>
      <point x="530" y="647"/>
      <point x="503" y="642"/>
      <point x="457" y="642" type="curve" smooth="yes"/>
      <point x="175" y="642" type="line" smooth="yes"/>
      <point x="147" y="642"/>
      <point x="113" y="648"/>
      <point x="105" y="662" type="curve" smooth="yes"/>
      <point x="99" y="673"/>
      <point x="85" y="694"/>
      <point x="80" y="694" type="curve" smooth="yes"/>
      <point x="75" y="694"/>
      <point x="66" y="693"/>
      <point x="63" y="671" type="curve" smooth="yes"/>
      <point x="57" y="629"/>
      <point x="51" y="604"/>
      <point x="32" y="566" type="curve" smooth="yes"/>
      <point x="29" y="560"/>
      <point x="27" y="552"/>
      <point x="27" y="546" type="curve" smooth="yes"/>
      <point x="27" y="539"/>
      <point x="29" y="533"/>
      <point x="34" y="533" type="curve" smooth="yes"/>
      <point x="49" y="533"/>
      <point x="69" y="560"/>
      <point x="75" y="571" type="curve" smooth="yes"/>
      <point x="89" y="597"/>
      <point x="125" y="610"/>
      <point x="157" y="610" type="curve" smooth="yes"/>
      <point x="254" y="610" type="line" smooth="yes"/>
      <point x="268" y="610"/>
      <point x="279" y="609"/>
      <point x="286" y="600" type="curve" smooth="yes"/>
      <point x="293" y="591"/>
      <point x="296" y="573"/>
      <point x="296" y="540" type="curve" smooth="yes"/>
      <point x="296" y="102" type="line" smooth="yes"/>
      <point x="296" y="54"/>
      <point x="268" y="33"/>
      <point x="218" y="24" type="curve" smooth="yes"/>
      <point x="195" y="20"/>
      <point x="185" y="15"/>
      <point x="185" y="6" type="curve" smooth="yes"/>
      <point x="185" y="-2"/>
      <point x="195" y="-5"/>
    </contour>
  </outline>
</glyph>
<glyph name="W" format="1">
  <advance width="916"/>
  <unicode hex="0057"/>
  <outline>
    <contour>
      <point x="335" y="-16" type="curve" smooth="yes"/>
      <point x="343" y="-16"/>
      <point x="352" y="1"/>
      <point x="357" y="15" type="curve" smooth="yes"/>
      <point x="395" y="113"/>
      <point x="435" y="218"/>
      <point x="473" y="316" type="curve" smooth="yes"/>
      <point x="478" y="329"/>
      <point x="480" y="331"/>
      <point x="484" y="322" type="curve" smooth="yes"/>
      <point x="531" y="207"/>
      <point x="556" y="126"/>
      <point x="605" y="7" type="curve" smooth="yes"/>
      <point x="609" y="-2"/>
      <point x="617" y="-12"/>
      <point x="622" y="-12" type="curve" smooth="yes"/>
      <point x="629" y="-12"/>
      <point x="636" y="5"/>
      <point x="638" y="11" type="curve" smooth="yes"/>
      <point x="815" y="534" type="line"/>
      <point x="826" y="563"/>
      <point x="848" y="611"/>
      <point x="897" y="622" type="curve" smooth="yes"/>
      <point x="920" y="627"/>
      <point x="930" y="633"/>
      <point x="930" y="642" type="curve" smooth="yes"/>
      <point x="930" y="650"/>
      <point x="918" y="653"/>
      <point x="901" y="653" type="curve" smooth="yes"/>
      <point x="876" y="653"/>
      <point x="844" y="650"/>
      <point x="811" y="650" type="curve" smooth="yes"/>
      <point x="785" y="650"/>
      <point x="765" y="651"/>
      <point x="739" y="651" type="curve" smooth="yes"/>
      <point x="722" y="651"/>
      <point x="710" y="648"/>
      <point x="710" y="640" type="curve" smooth="yes"/>
      <point x="710" y="631"/>
      <point x="729" y="624"/>
      <point x="743" y="620" type="curve" smooth="yes"/>
      <point x="765" y="614"/>
      <point x="773" y="597"/>
      <point x="773" y="577" type="curve" smooth="yes"/>
      <point x="773" y="566"/>
      <point x="771" y="553"/>
      <point x="767" y="541" type="curve"/>
      <point x="722" y="388"/>
      <point x="642" y="143"/>
      <point x="609" y="55" type="curve"/>
      <point x="605" y="46"/>
      <point x="601" y="42"/>
      <point x="598" y="49" type="curve" smooth="yes"/>
      <point x="490" y="337" type="line" smooth="yes"/>
      <point x="487" y="344"/>
      <point x="492" y="365"/>
      <point x="496" y="375" type="curve" smooth="yes"/>
      <point x="513" y="418"/>
      <point x="568" y="555"/>
      <point x="579" y="574" type="curve" smooth="yes"/>
      <point x="595" y="602"/>
      <point x="604" y="613"/>
      <point x="647" y="622" type="curve" smooth="yes"/>
      <point x="670" y="627"/>
      <point x="680" y="633"/>
      <point x="680" y="642" type="curve" smooth="yes"/>
      <point x="680" y="650"/>
      <point x="668" y="653"/>
      <point x="651" y="653" type="curve" smooth="yes"/>
      <point x="627" y="653"/>
      <point x="615" y="650"/>
      <point x="592" y="650" type="curve" smooth="yes"/>
      <point x="573" y="650"/>
      <point x="569" y="652"/>
      <point x="540" y="652" type="curve" smooth="yes"/>
      <point x="523" y="652"/>
      <point x="511" y="649"/>
      <point x="511" y="641" type="curve" smooth="yes"/>
      <point x="511" y="624"/>
      <point x="548" y="622"/>
      <point x="548" y="598" type="curve" smooth="yes"/>
      <point x="548" y="596"/>
      <point x="548" y="594"/>
      <point x="547" y="591" type="curve"/>
      <point x="542" y="574"/>
      <point x="502" y="464"/>
      <point x="478" y="411" type="curve" smooth="yes"/>
      <point x="470" y="393"/>
      <point x="467" y="395"/>
      <point x="460" y="411" type="curve" smooth="yes"/>
      <point x="452" y="430"/>
      <point x="394" y="574"/>
      <point x="390" y="586" type="curve" smooth="yes"/>
      <point x="389" y="589"/>
      <point x="388" y="591"/>
      <point x="388" y="594" type="curve" smooth="yes"/>
      <point x="388" y="617"/>
      <point x="432" y="624"/>
      <point x="432" y="641" type="curve" smooth="yes"/>
      <point x="432" y="649"/>
      <point x="423" y="652"/>
      <point x="411" y="652" type="curve" smooth="yes"/>
      <point x="396" y="652"/>
      <point x="377" y="650"/>
      <point x="355" y="650" type="curve" smooth="yes"/>
      <point x="328" y="650"/>
      <point x="309" y="653"/>
      <point x="286" y="653" type="curve" smooth="yes"/>
      <point x="274" y="653"/>
      <point x="265" y="650"/>
      <point x="265" y="642" type="curve" smooth="yes"/>
      <point x="265" y="633"/>
      <point x="276" y="627"/>
      <point x="298" y="620" type="curve" smooth="yes"/>
      <point x="332" y="610"/>
      <point x="378" y="581"/>
      <point x="396" y="538" type="curve" smooth="yes"/>
      <point x="453" y="403" type="line" smooth="yes"/>
      <point x="458" y="390"/>
      <point x="461" y="382"/>
      <point x="461" y="374" type="curve" smooth="yes"/>
      <point x="461" y="368"/>
      <point x="459" y="361"/>
      <point x="455" y="351" type="curve" smooth="yes"/>
      <point x="337" y="51" type="line" smooth="yes"/>
      <point x="331" y="37"/>
      <point x="327" y="33"/>
      <point x="319" y="53" type="curve" smooth="yes"/>
      <point x="240" y="250"/>
      <point x="202" y="342"/>
      <point x="122" y="545" type="curve"/>
      <point x="122" y="545"/>
      <point x="114" y="567"/>
      <point x="114" y="588" type="curve" smooth="yes"/>
      <point x="114" y="603"/>
      <point x="126" y="617"/>
      <point x="142" y="621" type="curve" smooth="yes"/>
      <point x="165" y="627"/>
      <point x="175" y="632"/>
      <point x="175" y="641" type="curve" smooth="yes"/>
      <point x="175" y="649"/>
      <point x="167" y="652"/>
      <point x="154" y="652" type="curve" smooth="yes"/>
      <point x="140" y="652"/>
      <point x="114" y="650"/>
      <point x="86" y="650" type="curve" smooth="yes"/>
      <point x="61" y="650"/>
      <point x="44" y="653"/>
      <point x="21" y="653" type="curve" smooth="yes"/>
      <point x="9" y="653"/>
      <point x="0" y="650"/>
      <point x="0" y="642" type="curve" smooth="yes"/>
      <point x="0" y="633"/>
      <point x="11" y="627"/>
      <point x="33" y="620" type="curve" smooth="yes"/>
      <point x="67" y="609"/>
      <point x="89" y="588"/>
      <point x="105" y="554" type="curve"/>
      <point x="321" y="12" type="line" smooth="yes"/>
      <point x="326" y="-1"/>
      <point x="332" y="-16"/>
    </contour>
  </outline>
</glyph>
<glyph name="X" format="1">
  <advance width="622"/>
  <unicode hex="0058"/>
  <outline>
    <contour>
      <point x="24" y="-5" type="curve" smooth="yes"/>
      <point x="57" y="-5"/>
      <point x="105" y="1"/>
      <point x="150" y="1" type="curve" smooth="yes"/>
      <point x="186" y="1"/>
      <point x="221" y="-1"/>
      <point x="239" y="-1" type="curve" smooth="yes"/>
      <point x="256" y="-1"/>
      <point x="268" y="2"/>
      <point x="268" y="10" type="curve" smooth="yes"/>
      <point x="268" y="19"/>
      <point x="258" y="24"/>
      <point x="235" y="30" type="curve"/>
      <point x="208" y="36"/>
      <point x="190" y="51"/>
      <point x="190" y="70" type="curve" smooth="yes"/>
      <point x="190" y="77"/>
      <point x="194" y="85"/>
      <point x="199" y="93" type="curve" smooth="yes"/>
      <point x="315" y="294" type="line" smooth="yes"/>
      <point x="321" y="304"/>
      <point x="327" y="303"/>
      <point x="337" y="289" type="curve" smooth="yes"/>
      <point x="460" y="111" type="line"/>
      <point x="469" y="99"/>
      <point x="472" y="88"/>
      <point x="472" y="78" type="curve" smooth="yes"/>
      <point x="472" y="53"/>
      <point x="448" y="37"/>
      <point x="428" y="31" type="curve" smooth="yes"/>
      <point x="414" y="27"/>
      <point x="395" y="20"/>
      <point x="395" y="11" type="curve" smooth="yes"/>
      <point x="395" y="3"/>
      <point x="404" y="0"/>
      <point x="416" y="0" type="curve" smooth="yes"/>
      <point x="433" y="0"/>
      <point x="461" y="1"/>
      <point x="490" y="1" type="curve" smooth="yes"/>
      <point x="524" y="1"/>
      <point x="573" y="-5"/>
      <point x="593" y="-5" type="curve" smooth="yes"/>
      <point x="605" y="-5"/>
      <point x="614" y="-2"/>
      <point x="614" y="6" type="curve" smooth="yes"/>
      <point x="614" y="15"/>
      <point x="604" y="20"/>
      <point x="581" y="26" type="curve" smooth="yes"/>
      <point x="543" y="36"/>
      <point x="505" y="67"/>
      <point x="474" y="111" type="curve" smooth="yes"/>
      <point x="333" y="314" type="line"/>
      <point x="326" y="329"/>
      <point x="332" y="331"/>
      <point x="347" y="354" type="curve" smooth="yes"/>
      <point x="448" y="510" type="line" smooth="yes"/>
      <point x="484" y="566"/>
      <point x="540" y="615"/>
      <point x="578" y="625" type="curve" smooth="yes"/>
      <point x="601" y="631"/>
      <point x="611" y="636"/>
      <point x="611" y="645" type="curve" smooth="yes"/>
      <point x="611" y="653"/>
      <point x="599" y="656"/>
      <point x="582" y="656" type="curve" smooth="yes"/>
      <point x="555" y="656"/>
      <point x="507" y="650"/>
      <point x="468" y="650" type="curve" smooth="yes"/>
      <point x="438" y="650"/>
      <point x="411" y="651"/>
      <point x="387" y="651" type="curve" smooth="yes"/>
      <point x="370" y="651"/>
      <point x="358" y="648"/>
      <point x="358" y="640" type="curve" smooth="yes"/>
      <point x="358" y="631"/>
      <point x="377" y="623"/>
      <point x="391" y="620" type="curve" smooth="yes"/>
      <point x="423" y="614"/>
      <point x="436" y="604"/>
      <point x="436" y="589" type="curve" smooth="yes"/>
      <point x="436" y="576"/>
      <point x="422" y="559"/>
      <point x="410" y="538" type="curve" smooth="yes"/>
      <point x="317" y="377" type="line" smooth="yes"/>
      <point x="308" y="361"/>
      <point x="302" y="359"/>
      <point x="287" y="380" type="curve" smooth="yes"/>
      <point x="182" y="528" type="line" smooth="yes"/>
      <point x="159" y="560"/>
      <point x="149" y="578"/>
      <point x="149" y="590" type="curve" smooth="yes"/>
      <point x="149" y="606"/>
      <point x="167" y="611"/>
      <point x="200" y="621" type="curve" smooth="yes"/>
      <point x="223" y="628"/>
      <point x="233" y="632"/>
      <point x="233" y="641" type="curve" smooth="yes"/>
      <point x="233" y="649"/>
      <point x="224" y="652"/>
      <point x="212" y="652" type="curve" smooth="yes"/>
      <point x="199" y="652"/>
      <point x="170" y="650"/>
      <point x="141" y="650" type="curve" smooth="yes"/>
      <point x="105" y="650"/>
      <point x="62" y="655"/>
      <point x="39" y="655" type="curve" smooth="yes"/>
      <point x="27" y="655"/>
      <point x="18" y="652"/>
      <point x="18" y="644" type="curve" smooth="yes"/>
      <point x="18" y="635"/>
      <point x="29" y="629"/>
      <point x="51" y="622" type="curve" smooth="yes"/>
      <point x="85" y="611"/>
      <point x="116" y="600"/>
      <point x="167" y="529" type="curve" smooth="yes"/>
      <point x="282" y="368" type="line" smooth="yes"/>
      <point x="301" y="341"/>
      <point x="291" y="326"/>
      <point x="277" y="307" type="curve"/>
      <point x="171" y="124" type="line" smooth="yes"/>
      <point x="138" y="68"/>
      <point x="62" y="39"/>
      <point x="28" y="28" type="curve" smooth="yes"/>
      <point x="6" y="21"/>
      <point x="-5" y="15"/>
      <point x="-5" y="6" type="curve" smooth="yes"/>
      <point x="-5" y="-2"/>
      <point x="7" y="-5"/>
    </contour>
  </outline>
</glyph>
<glyph name="Y" format="1">
  <advance width="488"/>
  <unicode hex="0059"/>
  <outline>
    <contour>
      <point x="147" y="-5" type="curve" smooth="yes"/>
      <point x="185" y="-5"/>
      <point x="203" y="0"/>
      <point x="238" y="0" type="curve" smooth="yes"/>
      <point x="271" y="0"/>
      <point x="283" y="-5"/>
      <point x="322" y="-5" type="curve" smooth="yes"/>
      <point x="339" y="-5"/>
      <point x="351" y="-2"/>
      <point x="351" y="6" type="curve" smooth="yes"/>
      <point x="351" y="15"/>
      <point x="341" y="20"/>
      <point x="318" y="24" type="curve" smooth="yes"/>
      <point x="268" y="33"/>
      <point x="239" y="63"/>
      <point x="239" y="108" type="curve" smooth="yes"/>
      <point x="239" y="232" type="line" smooth="yes"/>
      <point x="239" y="271"/>
      <point x="238" y="279"/>
      <point x="264" y="322" type="curve" smooth="yes"/>
      <point x="310" y="397"/>
      <point x="336" y="443"/>
      <point x="390" y="526" type="curve" smooth="yes"/>
      <point x="426" y="581"/>
      <point x="443" y="607"/>
      <point x="478" y="617" type="curve" smooth="yes"/>
      <point x="506" y="625"/>
      <point x="531" y="633"/>
      <point x="531" y="642" type="curve" smooth="yes"/>
      <point x="531" y="650"/>
      <point x="519" y="653"/>
      <point x="502" y="653" type="curve" smooth="yes"/>
      <point x="479" y="653"/>
      <point x="439" y="650"/>
      <point x="398" y="650" type="curve" smooth="yes"/>
      <point x="369" y="650"/>
      <point x="353" y="651"/>
      <point x="323" y="651" type="curve" smooth="yes"/>
      <point x="306" y="651"/>
      <point x="294" y="648"/>
      <point x="294" y="640" type="curve" smooth="yes"/>
      <point x="294" y="631"/>
      <point x="313" y="622"/>
      <point x="327" y="620" type="curve" smooth="yes"/>
      <point x="346" y="617"/>
      <point x="368" y="610"/>
      <point x="368" y="585" type="curve" smooth="yes"/>
      <point x="368" y="573"/>
      <point x="363" y="556"/>
      <point x="350" y="534" type="curve" smooth="yes"/>
      <point x="316" y="474"/>
      <point x="297" y="439"/>
      <point x="267" y="392" type="curve" smooth="yes"/>
      <point x="249" y="364"/>
      <point x="242" y="354"/>
      <point x="234" y="354" type="curve" smooth="yes"/>
      <point x="228" y="354"/>
      <point x="220" y="366"/>
      <point x="206" y="392" type="curve" smooth="yes"/>
      <point x="113" y="560" type="line" smooth="yes"/>
      <point x="104" y="576"/>
      <point x="100" y="588"/>
      <point x="100" y="596" type="curve" smooth="yes"/>
      <point x="100" y="611"/>
      <point x="113" y="616"/>
      <point x="132" y="621" type="curve" smooth="yes"/>
      <point x="154" y="627"/>
      <point x="165" y="632"/>
      <point x="165" y="641" type="curve" smooth="yes"/>
      <point x="165" y="649"/>
      <point x="157" y="652"/>
      <point x="146" y="652" type="curve" smooth="yes"/>
      <point x="133" y="652"/>
      <point x="114" y="650"/>
      <point x="94" y="650" type="curve" smooth="yes"/>
      <point x="65" y="650"/>
      <point x="38" y="653"/>
      <point x="19" y="653" type="curve" smooth="yes"/>
      <point x="8" y="653"/>
      <point x="0" y="650"/>
      <point x="0" y="642" type="curve" smooth="yes"/>
      <point x="0" y="633"/>
      <point x="11" y="627"/>
      <point x="33" y="620" type="curve" smooth="yes"/>
      <point x="67" y="609"/>
      <point x="108" y="547"/>
      <point x="122" y="522" type="curve" smooth="yes"/>
      <point x="208" y="363" type="line" smooth="yes"/>
      <point x="212" y="356"/>
      <point x="229" y="320"/>
      <point x="229" y="301" type="curve" smooth="yes"/>
      <point x="229" y="108" type="line" smooth="yes"/>
      <point x="229" y="60"/>
      <point x="201" y="33"/>
      <point x="151" y="24" type="curve" smooth="yes"/>
      <point x="128" y="20"/>
      <point x="118" y="15"/>
      <point x="118" y="6" type="curve" smooth="yes"/>
      <point x="118" y="-2"/>
      <point x="130" y="-5"/>
    </contour>
  </outline>
</glyph>
<glyph name="bracketleft" format="1">
  <advance width="268"/>
  <unicode hex="005B"/>
  <outline>
    <contour>
      <point x="222" y="-200" type="line" smooth="yes"/>
      <point x="234" y="-200"/>
      <point x="248" y="-197"/>
      <point x="248" y="-185" type="curve" smooth="yes"/>
      <point x="248" y="-173"/>
      <point x="235" y="-169"/>
      <point x="222" y="-167" type="curve"/>
      <point x="143" y="-154" type="line" smooth="yes"/>
      <point x="131" y="-152"/>
      <point x="120" y="-139"/>
      <point x="120" y="-121" type="curve" smooth="yes"/>
      <point x="120" y="642" type="line" smooth="yes"/>
      <point x="120" y="653"/>
      <point x="134" y="666"/>
      <point x="143" y="667" type="curve" smooth="yes"/>
      <point x="222" y="673" type="line" smooth="yes"/>
      <point x="235" y="674"/>
      <point x="248" y="678"/>
      <point x="248" y="688" type="curve" smooth="yes"/>
      <point x="248" y="698"/>
      <point x="239" y="701"/>
      <point x="230" y="701" type="curve" smooth="yes"/>
      <point x="148" y="702" type="line" smooth="yes"/>
      <point x="116" y="702"/>
      <point x="110" y="702"/>
      <point x="110" y="668" type="curve" smooth="yes"/>
      <point x="110" y="-175" type="line" smooth="yes"/>
      <point x="110" y="-199"/>
      <point x="118" y="-200"/>
      <point x="141" y="-200" type="curve" smooth="yes"/>
    </contour>
  </outline>
</glyph>
<glyph name="grave" format="1">
  <advance width="173"/>
  <unicode hex="0060"/>
  <outline>
    <contour>
      <point x="147" y="452"/>
      <point x="151" y="456"/>
      <point x="151" y="466" type="curve" smooth="yes"/>
      <point x="151" y="471"/>
      <point x="147" y="477"/>
      <point x="143" y="487" type="curve" smooth="yes"/>
      <point x="118" y="525"/>
      <point x="82" y="580"/>
      <point x="42" y="642" type="curve" smooth="yes"/>
      <point x="35" y="652"/>
      <point x="34" y="660"/>
      <point x="28" y="660" type="curve" smooth="yes"/>
      <point x="22" y="660"/>
      <point x="22" y="658"/>
      <point x="22" y="654" type="curve" smooth="yes"/>
      <point x="22" y="649"/>
      <point x="30" y="638"/>
      <point x="34" y="630" type="curve" smooth="yes"/>
      <point x="56" y="588"/>
      <point x="91" y="515"/>
      <point x="124" y="466" type="curve" smooth="yes"/>
      <point x="131" y="456"/>
      <point x="138" y="452"/>
      <point x="143" y="452" type="curve" smooth="yes"/>
    </contour>
  </outline>
</glyph>
<glyph name="c" format="1">
  <advance width="347"/>
  <unicode hex="0063"/>
  <outline>
    <contour>
      <point x="182" y="-15" type="curve" smooth="yes"/>
      <point x="231" y="-15"/>
      <point x="273" y="7"/>
      <point x="300" y="48" type="curve" smooth="yes"/>
      <point x="308" y="61"/>
      <point x="312" y="71"/>
      <point x="312" y="79" type="curve" smooth="yes"/>
      <point x="312" y="87"/>
      <point x="307" y="93"/>
      <point x="301" y="93" type="curve" smooth="yes"/>
      <point x="298" y="93"/>
      <point x="294" y="91"/>
      <point x="291" y="88" type="curve" smooth="yes"/>
      <point x="259" y="56"/>
      <point x="235" y="45"/>
      <point x="196" y="45" type="curve" smooth="yes"/>
      <point x="111" y="45"/>
      <point x="44" y="118"/>
      <point x="44" y="212" type="curve" smooth="yes"/>
      <point x="44" y="310"/>
      <point x="89" y="377"/>
      <point x="154" y="377" type="curve" smooth="yes"/>
      <point x="178" y="377"/>
      <point x="219" y="352"/>
      <point x="248" y="330" type="curve" smooth="yes"/>
      <point x="256" y="324"/>
      <point x="262" y="319"/>
      <point x="269" y="319" type="curve" smooth="yes"/>
      <point x="286" y="319"/>
      <point x="312" y="343"/>
      <point x="312" y="360" type="curve" smooth="yes"/>
      <point x="312" y="367"/>
      <point x="309" y="373"/>
      <point x="302" y="379" type="curve" smooth="yes"/>
      <point x="276" y="402"/>
      <point x="244" y="414"/>
      <point x="209" y="414" type="curve" smooth="yes"/>
      <point x="81" y="414"/>
      <point x="35" y="315"/>
      <point x="35" y="180" type="curve" smooth="yes"/>
      <point x="35" y="69"/>
      <point x="99" y="-15"/>
    </contour>
  </outline>
</glyph>
<glyph name="d" format="1">
  <advance width="384"/>
  <unicode hex="0064"/>
  <outline>
    <contour>
      <point x="292" y="-19" type="curve" smooth="yes"/>
      <point x="294" y="-19"/>
      <point x="295" y="-19"/>
      <point x="302" y="-13" type="curve" smooth="yes"/>
      <point x="330" y="7"/>
      <point x="351" y="16"/>
      <point x="373" y="21" type="curve" smooth="yes"/>
      <point x="378" y="21"/>
      <point x="382" y="30"/>
      <point x="382" y="39" type="curve" smooth="yes"/>
      <point x="382" y="47"/>
      <point x="377" y="49"/>
      <point x="364" y="48" type="curve" smooth="yes"/>
      <point x="347" y="47"/>
      <point x="328" y="45"/>
      <point x="321" y="45" type="curve" smooth="yes"/>
      <point x="306" y="45"/>
      <point x="300" y="64"/>
      <point x="300" y="110" type="curve" smooth="yes"/>
      <point x="300" y="562" type="line" smooth="yes"/>
      <point x="300" y="652"/>
      <point x="303" y="686"/>
      <point x="303" y="698" type="curve"/>
      <point x="303" y="702"/>
      <point x="302" y="704"/>
      <point x="300" y="704" type="curve" smooth="yes"/>
      <point x="298" y="704"/>
      <point x="296" y="703"/>
      <point x="293" y="701" type="curve" smooth="yes"/>
      <point x="283" y="693"/>
      <point x="267" y="679"/>
      <point x="236" y="664" type="curve" smooth="yes"/>
      <point x="233" y="662"/>
      <point x="232" y="657"/>
      <point x="232" y="652" type="curve" smooth="yes"/>
      <point x="232" y="646"/>
      <point x="235" y="640"/>
      <point x="241" y="639" type="curve" smooth="yes"/>
      <point x="273" y="633"/>
      <point x="291" y="620"/>
      <point x="291" y="566" type="curve" smooth="yes"/>
      <point x="291" y="403" type="line" smooth="yes"/>
      <point x="291" y="385"/>
      <point x="288" y="379"/>
      <point x="285" y="379" type="curve" smooth="yes"/>
      <point x="283" y="379"/>
      <point x="280" y="377"/>
      <point x="275" y="382" type="curve" smooth="yes"/>
      <point x="257" y="399"/>
      <point x="228" y="413"/>
      <point x="200" y="413" type="curve" smooth="yes"/>
      <point x="106" y="413"/>
      <point x="35" y="337"/>
      <point x="35" y="190" type="curve" smooth="yes"/>
      <point x="35" y="89"/>
      <point x="93" y="-14"/>
      <point x="185" y="-14" type="curve" smooth="yes"/>
      <point x="238" y="-14"/>
      <point x="276" y="44"/>
      <point x="290" y="77" type="curve"/>
      <point x="290" y="51" type="line" smooth="yes"/>
      <point x="290" y="34"/>
      <point x="285" y="4"/>
      <point x="285" y="-9" type="curve" smooth="yes"/>
      <point x="285" y="-12"/>
      <point x="290" y="-19"/>
    </contour>
    <contour>
      <point x="195" y="38" type="curve" smooth="yes"/>
      <point x="151" y="38"/>
      <point x="45" y="62"/>
      <point x="45" y="213" type="curve" smooth="yes"/>
      <point x="45" y="346"/>
      <point x="122" y="379"/>
      <point x="168" y="379" type="curve" smooth="yes"/>
      <point x="242" y="379"/>
      <point x="291" y="321"/>
      <point x="291" y="267" type="curve" smooth="yes"/>
      <point x="290" y="87" type="line"/>
      <point x="265" y="58"/>
      <point x="230" y="38"/>
    </contour>
  </outline>
</glyph>
<glyph name="e" format="1">
  <advance width="333"/>
  <unicode hex="0065"/>
  <outline>
    <contour>
      <point x="182" y="-15" type="curve" smooth="yes"/>
      <point x="226" y="-15"/>
      <point x="268" y="8"/>
      <point x="293" y="47" type="curve" smooth="yes"/>
      <point x="303" y="62"/>
      <point x="308" y="76"/>
      <point x="308" y="89" type="curve" smooth="yes"/>
      <point x="308" y="95"/>
      <point x="305" y="99"/>
      <point x="300" y="99" type="curve" smooth="yes"/>
      <point x="296" y="99"/>
      <point x="294" y="98"/>
      <point x="289" y="91" type="curve" smooth="yes"/>
      <point x="264" y="62"/>
      <point x="231" y="46"/>
      <point x="191" y="46" type="curve" smooth="yes"/>
      <point x="106" y="46"/>
      <point x="37" y="124"/>
      <point x="37" y="220" type="curve" smooth="yes"/>
      <point x="37" y="249"/>
      <point x="43" y="257"/>
      <point x="62" y="257" type="curve" smooth="yes"/>
      <point x="274" y="257" type="line" smooth="yes"/>
      <point x="295" y="257"/>
      <point x="304" y="267"/>
      <point x="304" y="288" type="curve" smooth="yes"/>
      <point x="304" y="362"/>
      <point x="257" y="414"/>
      <point x="190" y="414" type="curve" smooth="yes"/>
      <point x="96" y="414"/>
      <point x="30" y="329"/>
      <point x="30" y="203" type="curve" smooth="yes"/>
      <point x="30" y="72"/>
      <point x="91" y="-15"/>
    </contour>
    <contour>
      <point x="64" y="288" type="line" smooth="yes"/>
      <point x="56" y="288"/>
      <point x="52" y="291"/>
      <point x="52" y="298" type="curve" smooth="yes"/>
      <point x="52" y="338"/>
      <point x="122" y="385"/>
      <point x="182" y="385" type="curve" smooth="yes"/>
      <point x="244" y="385"/>
      <point x="295" y="353"/>
      <point x="295" y="315" type="curve" smooth="yes"/>
      <point x="295" y="301"/>
      <point x="293" y="294"/>
      <point x="287" y="293" type="curve" smooth="yes"/>
      <point x="257" y="289"/>
      <point x="230" y="288"/>
      <point x="187" y="288" type="curve" smooth="yes"/>
    </contour>
  </outline>
</glyph>
<glyph name="f" format="1">
  <advance width="257"/>
  <unicode hex="0066"/>
  <outline>
    <contour>
      <point x="68" y="-3"/>
      <point x="74" y="2"/>
      <point x="99" y="2" type="curve" smooth="yes"/>
      <point x="125" y="2"/>
      <point x="144" y="-3"/>
      <point x="173" y="-3" type="curve" smooth="yes"/>
      <point x="183" y="-3"/>
      <point x="188" y="0"/>
      <point x="188" y="8" type="curve" smooth="yes"/>
      <point x="188" y="18"/>
      <point x="179" y="22"/>
      <point x="165" y="24" type="curve" smooth="yes"/>
      <point x="111" y="32"/>
      <point x="99" y="41"/>
      <point x="99" y="68" type="curve" smooth="yes"/>
      <point x="99" y="339" type="line" smooth="yes"/>
      <point x="99" y="347"/>
      <point x="102" y="352"/>
      <point x="118" y="352" type="curve" smooth="yes"/>
      <point x="233" y="352" type="line" smooth="yes"/>
      <point x="236" y="352"/>
      <point x="240" y="355"/>
      <point x="242" y="360" type="curve" smooth="yes"/>
      <point x="245" y="368"/>
      <point x="248" y="380"/>
      <point x="248" y="389" type="curve" smooth="yes"/>
      <point x="248" y="395"/>
      <point x="242" y="400"/>
      <point x="235" y="400" type="curve" smooth="yes"/>
      <point x="110" y="400" type="line" smooth="yes"/>
      <point x="104" y="400"/>
      <point x="99" y="402"/>
      <point x="99" y="410" type="curve" smooth="yes"/>
      <point x="99" y="464" type="line" smooth="yes"/>
      <point x="99" y="600"/>
      <point x="144" y="665"/>
      <point x="207" y="665" type="curve" smooth="yes"/>
      <point x="251" y="665"/>
      <point x="274" y="646"/>
      <point x="291" y="629" type="curve" smooth="yes"/>
      <point x="304" y="616"/>
      <point x="313" y="606"/>
      <point x="325" y="606" type="curve" smooth="yes"/>
      <point x="343" y="606"/>
      <point x="359" y="617"/>
      <point x="359" y="644" type="curve" smooth="yes"/>
      <point x="359" y="675"/>
      <point x="321" y="706"/>
      <point x="270" y="706" type="curve" smooth="yes"/>
      <point x="159" y="706"/>
      <point x="90" y="658"/>
      <point x="90" y="449" type="curve" smooth="yes"/>
      <point x="90" y="406" type="line"/>
      <point x="70" y="396"/>
      <point x="55" y="388"/>
      <point x="31" y="376" type="curve" smooth="yes"/>
      <point x="29" y="375"/>
      <point x="24" y="373"/>
      <point x="24" y="370" type="curve" smooth="yes"/>
      <point x="24" y="363"/>
      <point x="34" y="353"/>
      <point x="38" y="352" type="curve"/>
      <point x="59" y="350"/>
      <point x="77" y="350"/>
      <point x="90" y="350" type="curve"/>
      <point x="90" y="68" type="line" smooth="yes"/>
      <point x="90" y="41"/>
      <point x="78" y="31"/>
      <point x="47" y="24" type="curve" smooth="yes"/>
      <point x="33" y="21"/>
      <point x="24" y="18"/>
      <point x="24" y="8" type="curve" smooth="yes"/>
      <point x="24" y="0"/>
      <point x="29" y="-3"/>
      <point x="39" y="-3" type="curve" smooth="yes"/>
    </contour>
  </outline>
</glyph>
<glyph name="g" format="1">
  <advance width="275"/>
  <unicode hex="0067"/>
  <outline>
    <contour>
      <point x="107" y="-290" type="curve" smooth="yes"/>
      <point x="196" y="-290"/>
      <point x="278" y="-196"/>
      <point x="272" y="-77" type="curve" smooth="yes"/>
      <point x="269" y="-16"/>
      <point x="227" y="17"/>
      <point x="129" y="24" type="curve" smooth="yes"/>
      <point x="63" y="29"/>
      <point x="33" y="46"/>
      <point x="33" y="74" type="curve" smooth="yes"/>
      <point x="33" y="88"/>
      <point x="62" y="113"/>
      <point x="91" y="124" type="curve"/>
      <point x="79" y="141" type="line"/>
      <point x="73" y="135"/>
      <point x="82" y="140"/>
      <point x="46" y="104" type="curve" smooth="yes"/>
      <point x="33" y="91"/>
      <point x="23" y="80"/>
      <point x="23" y="67" type="curve" smooth="yes"/>
      <point x="23" y="-3"/>
      <point x="41" y="-27"/>
      <point x="137" y="-36" type="curve" smooth="yes"/>
      <point x="223" y="-44"/>
      <point x="259" y="-65"/>
      <point x="264" y="-108" type="curve" smooth="yes"/>
      <point x="268" y="-146"/>
      <point x="249" y="-183"/>
      <point x="228" y="-208" type="curve" smooth="yes"/>
      <point x="205" y="-235"/>
      <point x="167" y="-250"/>
      <point x="121" y="-250" type="curve" smooth="yes"/>
      <point x="72" y="-250"/>
      <point x="20" y="-208"/>
      <point x="20" y="-155" type="curve" smooth="yes"/>
      <point x="20" y="-102"/>
      <point x="51" y="-62"/>
      <point x="111" y="-20" type="curve"/>
      <point x="90" y="-18" type="line"/>
      <point x="69" y="-45"/>
      <point x="44" y="-76"/>
      <point x="31" y="-91" type="curve" smooth="yes"/>
      <point x="16" y="-109"/>
      <point x="11" y="-135"/>
      <point x="11" y="-170" type="curve" smooth="yes"/>
      <point x="11" y="-244"/>
      <point x="54" y="-290"/>
    </contour>
    <contour>
      <point x="131" y="141" type="curve" smooth="yes"/>
      <point x="79" y="141"/>
      <point x="35" y="200"/>
      <point x="35" y="270" type="curve" smooth="yes"/>
      <point x="35" y="331"/>
      <point x="77" y="386"/>
      <point x="124" y="386" type="curve" smooth="yes"/>
      <point x="173" y="386"/>
      <point x="219" y="333"/>
      <point x="219" y="275" type="curve" smooth="yes"/>
      <point x="219" y="199"/>
      <point x="181" y="141"/>
    </contour>
    <contour>
      <point x="129" y="106" type="curve" smooth="yes"/>
      <point x="183" y="106"/>
      <point x="229" y="193"/>
      <point x="229" y="295" type="curve" smooth="yes"/>
      <point x="229" y="313"/>
      <point x="232" y="332"/>
      <point x="234" y="341" type="curve" smooth="yes"/>
      <point x="235" y="346"/>
      <point x="241" y="349"/>
      <point x="252" y="349" type="curve" smooth="yes"/>
      <point x="270" y="349" type="line"/>
      <point x="271" y="349"/>
      <point x="273" y="351"/>
      <point x="275" y="354" type="curve" smooth="yes"/>
      <point x="278" y="360"/>
      <point x="281" y="368"/>
      <point x="281" y="373" type="curve" smooth="yes"/>
      <point x="281" y="382"/>
      <point x="277" y="388"/>
      <point x="273" y="388" type="curve" smooth="yes"/>
      <point x="266" y="388"/>
      <point x="248" y="385"/>
      <point x="238" y="385" type="curve" smooth="yes"/>
      <point x="226" y="385"/>
      <point x="215" y="386"/>
      <point x="195" y="395" type="curve" smooth="yes"/>
      <point x="178" y="403"/>
      <point x="161" y="416"/>
      <point x="136" y="416" type="curve" smooth="yes"/>
      <point x="79" y="416"/>
      <point x="25" y="351"/>
      <point x="25" y="258" type="curve" smooth="yes"/>
      <point x="25" y="176"/>
      <point x="77" y="106"/>
    </contour>
  </outline>
</glyph>
<glyph name="j" format="1">
  <advance width="165"/>
  <unicode hex="006A"/>
  <outline>
    <contour>
      <point x="1" y="-287" type="curve" smooth="yes"/>
      <point x="26" y="-287"/>
      <point x="64" y="-220"/>
      <point x="80" y="-152" type="curve" smooth="yes"/>
      <point x="97" y="-72"/>
      <point x="98" y="29"/>
      <point x="98" y="91" type="curve" smooth="yes"/>
      <point x="98" y="275" type="line" smooth="yes"/>
      <point x="98" y="320"/>
      <point x="101" y="388"/>
      <point x="105" y="429" type="curve"/>
      <point x="105" y="432"/>
      <point x="102" y="434"/>
      <point x="98" y="434" type="curve" smooth="yes"/>
      <point x="97" y="434"/>
      <point x="95" y="431"/>
      <point x="91" y="427" type="curve" smooth="yes"/>
      <point x="82" y="415"/>
      <point x="64" y="389"/>
      <point x="39" y="377" type="curve" smooth="yes"/>
      <point x="37" y="376"/>
      <point x="35" y="370"/>
      <point x="35" y="365" type="curve" smooth="yes"/>
      <point x="35" y="359"/>
      <point x="38" y="353"/>
      <point x="43" y="352" type="curve" smooth="yes"/>
      <point x="77" y="345"/>
      <point x="89" y="315"/>
      <point x="89" y="279" type="curve" smooth="yes"/>
      <point x="89" y="69" type="line" smooth="yes"/>
      <point x="89" y="0"/>
      <point x="86" y="-136"/>
      <point x="57" y="-197" type="curve" smooth="yes"/>
      <point x="38" y="-237"/>
      <point x="15" y="-254"/>
      <point x="-9" y="-260" type="curve"/>
      <point x="-11" y="-261"/>
      <point x="-20" y="-269"/>
      <point x="-20" y="-277" type="curve" smooth="yes"/>
      <point x="-20" y="-284"/>
      <point x="-6" y="-287"/>
    </contour>
    <contour>
      <point x="93" y="541" type="curve" smooth="yes"/>
      <point x="110" y="541"/>
      <point x="120" y="551"/>
      <point x="120" y="565" type="curve" smooth="yes"/>
      <point x="120" y="582"/>
      <point x="110" y="592"/>
      <point x="93" y="592" type="curve" smooth="yes"/>
      <point x="79" y="592"/>
      <point x="69" y="582"/>
      <point x="69" y="565" type="curve" smooth="yes"/>
      <point x="69" y="551"/>
      <point x="79" y="541"/>
    </contour>
  </outline>
</glyph>
<glyph name="m" format="1">
  <advance width="595"/>
  <unicode hex="006D"/>
  <outline>
    <contour>
      <point x="38" y="-3" type="curve" smooth="yes"/>
      <point x="66" y="-3"/>
      <point x="70" y="2"/>
      <point x="95" y="2" type="curve" smooth="yes"/>
      <point x="119" y="2"/>
      <point x="123" y="-3"/>
      <point x="151" y="-3" type="curve" smooth="yes"/>
      <point x="159" y="-3"/>
      <point x="165" y="0"/>
      <point x="165" y="8" type="curve" smooth="yes"/>
      <point x="165" y="18"/>
      <point x="153" y="20"/>
      <point x="142" y="24" type="curve" smooth="yes"/>
      <point x="122" y="30"/>
      <point x="99" y="35"/>
      <point x="99" y="62" type="curve" smooth="yes"/>
      <point x="99" y="268" type="line" smooth="yes"/>
      <point x="99" y="302"/>
      <point x="107" y="326"/>
      <point x="126" y="340" type="curve" smooth="yes"/>
      <point x="151" y="360"/>
      <point x="179" y="367"/>
      <point x="213" y="367" type="curve" smooth="yes"/>
      <point x="256" y="367"/>
      <point x="293" y="320"/>
      <point x="293" y="272" type="curve" smooth="yes"/>
      <point x="293" y="62" type="line" smooth="yes"/>
      <point x="293" y="35"/>
      <point x="269" y="30"/>
      <point x="249" y="24" type="curve" smooth="yes"/>
      <point x="238" y="20"/>
      <point x="226" y="18"/>
      <point x="226" y="8" type="curve" smooth="yes"/>
      <point x="226" y="0"/>
      <point x="232" y="-3"/>
      <point x="240" y="-3" type="curve" smooth="yes"/>
      <point x="268" y="-3"/>
      <point x="274" y="2"/>
      <point x="298" y="2" type="curve" smooth="yes"/>
      <point x="323" y="2"/>
      <point x="328" y="-3"/>
      <point x="356" y="-3" type="curve" smooth="yes"/>
      <point x="365" y="-3"/>
      <point x="370" y="0"/>
      <point x="370" y="8" type="curve" smooth="yes"/>
      <point x="370" y="17"/>
      <point x="360" y="21"/>
      <point x="347" y="24" type="curve" smooth="yes"/>
      <point x="327" y="29"/>
      <point x="302" y="35"/>
      <point x="302" y="62" type="curve" smooth="yes"/>
      <point x="302" y="268" type="line" smooth="yes"/>
      <point x="302" y="303"/>
      <point x="312" y="326"/>
      <point x="330" y="340" type="curve" smooth="yes"/>
      <point x="355" y="360"/>
      <point x="383" y="367"/>
      <point x="417" y="367" type="curve" smooth="yes"/>
      <point x="460" y="367"/>
      <point x="497" y="320"/>
      <point x="497" y="272" type="curve" smooth="yes"/>
      <point x="497" y="62" type="line" smooth="yes"/>
      <point x="497" y="35"/>
      <point x="475" y="29"/>
      <point x="454" y="24" type="curve" smooth="yes"/>
      <point x="441" y="21"/>
      <point x="431" y="18"/>
      <point x="431" y="8" type="curve" smooth="yes"/>
      <point x="431" y="0"/>
      <point x="437" y="-3"/>
      <point x="445" y="-3" type="curve" smooth="yes"/>
      <point x="473" y="-3"/>
      <point x="478" y="2"/>
      <point x="503" y="2" type="curve" smooth="yes"/>
      <point x="527" y="2"/>
      <point x="530" y="-3"/>
      <point x="558" y="-3" type="curve" smooth="yes"/>
      <point x="568" y="-3"/>
      <point x="572" y="0"/>
      <point x="572" y="8" type="curve" smooth="yes"/>
      <point x="572" y="17"/>
      <point x="562" y="20"/>
      <point x="549" y="24" type="curve" smooth="yes"/>
      <point x="529" y="30"/>
      <point x="506" y="35"/>
      <point x="506" y="62" type="curve" smooth="yes"/>
      <point x="506" y="275" type="line" smooth="yes"/>
      <point x="506" y="345"/>
      <point x="479" y="414"/>
      <point x="429" y="414" type="curve" smooth="yes"/>
      <point x="379" y="414"/>
      <point x="337" y="383"/>
      <point x="304" y="345" type="curve"/>
      <point x="302" y="345" type="line"/>
      <point x="286" y="396"/>
      <point x="262" y="414"/>
      <point x="225" y="414" type="curve" smooth="yes"/>
      <point x="166" y="414"/>
      <point x="129" y="376"/>
      <point x="106" y="347" type="curve"/>
      <point x="104" y="347" type="line"/>
      <point x="103" y="348"/>
      <point x="102" y="353"/>
      <point x="102" y="359" type="curve" smooth="yes"/>
      <point x="102" y="378"/>
      <point x="107" y="414"/>
      <point x="107" y="423" type="curve" smooth="yes"/>
      <point x="107" y="427"/>
      <point x="105" y="430"/>
      <point x="104" y="430" type="curve" smooth="yes"/>
      <point x="102" y="430"/>
      <point x="100" y="427"/>
      <point x="99" y="426" type="curve" smooth="yes"/>
      <point x="81" y="403"/>
      <point x="74" y="387"/>
      <point x="53" y="377" type="curve" smooth="yes"/>
      <point x="44" y="373"/>
      <point x="43" y="370"/>
      <point x="43" y="362" type="curve" smooth="yes"/>
      <point x="43" y="354"/>
      <point x="46" y="350"/>
      <point x="55" y="348" type="curve" smooth="yes"/>
      <point x="86" y="343"/>
      <point x="90" y="313"/>
      <point x="90" y="277" type="curve" smooth="yes"/>
      <point x="90" y="62" type="line" smooth="yes"/>
      <point x="90" y="35"/>
      <point x="66" y="30"/>
      <point x="47" y="24" type="curve" smooth="yes"/>
      <point x="34" y="20"/>
      <point x="24" y="17"/>
      <point x="24" y="8" type="curve" smooth="yes"/>
      <point x="24" y="-1"/>
      <point x="30" y="-3"/>
    </contour>
  </outline>
</glyph>
<glyph name="p" format="1">
  <advance width="387"/>
  <unicode hex="0070"/>
  <outline>
    <contour>
      <point x="62" y="-285"/>
      <point x="66" y="-280"/>
      <point x="92" y="-280" type="curve" smooth="yes"/>
      <point x="117" y="-280"/>
      <point x="131" y="-285"/>
      <point x="159" y="-285" type="curve" smooth="yes"/>
      <point x="165" y="-285"/>
      <point x="175" y="-284"/>
      <point x="175" y="-276" type="curve" smooth="yes"/>
      <point x="175" y="-266"/>
      <point x="163" y="-262"/>
      <point x="152" y="-258" type="curve"/>
      <point x="132" y="-252"/>
      <point x="94" y="-247"/>
      <point x="94" y="-220" type="curve" smooth="yes"/>
      <point x="94" y="-33" type="line" smooth="yes"/>
      <point x="94" y="-27"/>
      <point x="95" y="40"/>
      <point x="98" y="40" type="curve"/>
      <point x="113" y="10"/>
      <point x="154" y="-14"/>
      <point x="176" y="-14" type="curve" smooth="yes"/>
      <point x="305" y="-14"/>
      <point x="352" y="88"/>
      <point x="352" y="225" type="curve" smooth="yes"/>
      <point x="352" y="319"/>
      <point x="304" y="414"/>
      <point x="224" y="414" type="curve" smooth="yes"/>
      <point x="174" y="414"/>
      <point x="112" y="367"/>
      <point x="97" y="348" type="curve"/>
      <point x="96" y="349"/>
      <point x="96" y="353"/>
      <point x="96" y="357" type="curve" smooth="yes"/>
      <point x="96" y="373"/>
      <point x="101" y="405"/>
      <point x="101" y="417" type="curve" smooth="yes"/>
      <point x="101" y="421"/>
      <point x="98" y="426"/>
      <point x="95" y="426" type="curve" smooth="yes"/>
      <point x="94" y="426"/>
      <point x="94" y="425"/>
      <point x="93" y="425" type="curve"/>
      <point x="75" y="412"/>
      <point x="56" y="398"/>
      <point x="38" y="385" type="curve" smooth="yes"/>
      <point x="34" y="384"/>
      <point x="31" y="379"/>
      <point x="31" y="373" type="curve" smooth="yes"/>
      <point x="31" y="367"/>
      <point x="34" y="361"/>
      <point x="39" y="360" type="curve" smooth="yes"/>
      <point x="72" y="353"/>
      <point x="85" y="302"/>
      <point x="85" y="287" type="curve" smooth="yes"/>
      <point x="85" y="-220" type="line" smooth="yes"/>
      <point x="85" y="-247"/>
      <point x="62" y="-252"/>
      <point x="42" y="-258" type="curve"/>
      <point x="31" y="-262"/>
      <point x="19" y="-266"/>
      <point x="19" y="-276" type="curve" smooth="yes"/>
      <point x="19" y="-284"/>
      <point x="29" y="-285"/>
      <point x="34" y="-285" type="curve" smooth="yes"/>
    </contour>
    <contour>
      <point x="159" y="17"/>
      <point x="94" y="85"/>
      <point x="94" y="166" type="curve" smooth="yes"/>
      <point x="94" y="190"/>
      <point x="97" y="259"/>
      <point x="97" y="317" type="curve" smooth="yes"/>
      <point x="97" y="331"/>
      <point x="159" y="369"/>
      <point x="207" y="369" type="curve" smooth="yes"/>
      <point x="250" y="369"/>
      <point x="343" y="347"/>
      <point x="343" y="193" type="curve" smooth="yes"/>
      <point x="343" y="59"/>
      <point x="252" y="17"/>
      <point x="213" y="17" type="curve" smooth="yes"/>
    </contour>
  </outline>
</glyph>
<glyph name="q" format="1">
  <advance width="389"/>
  <unicode hex="0071"/>
  <outline>
    <contour>
      <point x="253" y="-285" type="curve" smooth="yes"/>
      <point x="282" y="-285"/>
      <point x="286" y="-280"/>
      <point x="311" y="-280" type="curve" smooth="yes"/>
      <point x="336" y="-280"/>
      <point x="346" y="-285"/>
      <point x="375" y="-285" type="curve" smooth="yes"/>
      <point x="381" y="-285"/>
      <point x="389" y="-284"/>
      <point x="389" y="-276" type="curve" smooth="yes"/>
      <point x="389" y="-266"/>
      <point x="377" y="-262"/>
      <point x="366" y="-258" type="curve"/>
      <point x="346" y="-252"/>
      <point x="314" y="-247"/>
      <point x="314" y="-220" type="curve" smooth="yes"/>
      <point x="314" y="295" type="line" smooth="yes"/>
      <point x="314" y="352"/>
      <point x="326" y="398"/>
      <point x="326" y="411" type="curve" smooth="yes"/>
      <point x="326" y="416"/>
      <point x="316" y="421"/>
      <point x="310" y="421" type="curve" smooth="yes"/>
      <point x="308" y="421"/>
      <point x="306" y="418"/>
      <point x="305" y="417" type="curve"/>
      <point x="301" y="402"/>
      <point x="297" y="392"/>
      <point x="288" y="392" type="curve" smooth="yes"/>
      <point x="284" y="392"/>
      <point x="247" y="414"/>
      <point x="201" y="414" type="curve" smooth="yes"/>
      <point x="102" y="414"/>
      <point x="35" y="329"/>
      <point x="35" y="188" type="curve" smooth="yes"/>
      <point x="35" y="64"/>
      <point x="112" y="-14"/>
      <point x="193" y="-14" type="curve" smooth="yes"/>
      <point x="234" y="-14"/>
      <point x="279" y="26"/>
      <point x="292" y="41" type="curve" smooth="yes"/>
      <point x="294" y="44"/>
      <point x="297" y="43"/>
      <point x="299" y="43" type="curve" smooth="yes"/>
      <point x="303" y="43"/>
      <point x="305" y="36"/>
      <point x="305" y="13" type="curve" smooth="yes"/>
      <point x="305" y="-220" type="line" smooth="yes"/>
      <point x="305" y="-247"/>
      <point x="282" y="-252"/>
      <point x="262" y="-258" type="curve"/>
      <point x="251" y="-262"/>
      <point x="239" y="-266"/>
      <point x="239" y="-276" type="curve" smooth="yes"/>
      <point x="239" y="-284"/>
      <point x="248" y="-285"/>
    </contour>
    <contour>
      <point x="200" y="39" type="curve" smooth="yes"/>
      <point x="140" y="39"/>
      <point x="45" y="72"/>
      <point x="45" y="214" type="curve" smooth="yes"/>
      <point x="45" y="320"/>
      <point x="113" y="382"/>
      <point x="185" y="382" type="curve" smooth="yes"/>
      <point x="251" y="382"/>
      <point x="303" y="335"/>
      <point x="305" y="275" type="curve" smooth="yes"/>
      <point x="306" y="250"/>
      <point x="306" y="116"/>
      <point x="306" y="80" type="curve"/>
      <point x="289" y="61"/>
      <point x="244" y="39"/>
    </contour>
  </outline>
</glyph>
<glyph name="s" format="1">
  <advance width="313"/>
  <unicode hex="0073"/>
  <outline>
    <contour>
      <point x="216" y="-14"/>
      <point x="289" y="31"/>
      <point x="289" y="97" type="curve" smooth="yes"/>
      <point x="289" y="120"/>
      <point x="272" y="152"/>
      <point x="173" y="205" type="curve" smooth="yes"/>
      <point x="87" y="258"/>
      <point x="70" y="277"/>
      <point x="70" y="319" type="curve" smooth="yes"/>
      <point x="70" y="368"/>
      <point x="131" y="386"/>
      <point x="171" y="386" type="curve" smooth="yes"/>
      <point x="209" y="386"/>
      <point x="234" y="362"/>
      <point x="252" y="318" type="curve" smooth="yes"/>
      <point x="254" y="313"/>
      <point x="263" y="309"/>
      <point x="271" y="309" type="curve" smooth="yes"/>
      <point x="276" y="309"/>
      <point x="281" y="311"/>
      <point x="281" y="316" type="curve" smooth="yes"/>
      <point x="281" y="344"/>
      <point x="272" y="380"/>
      <point x="262" y="395" type="curve"/>
      <point x="249" y="404"/>
      <point x="222" y="414"/>
      <point x="182" y="414" type="curve" smooth="yes"/>
      <point x="101" y="414"/>
      <point x="47" y="371"/>
      <point x="47" y="323" type="curve" smooth="yes"/>
      <point x="47" y="286"/>
      <point x="70" y="257"/>
      <point x="167" y="199" type="curve" smooth="yes"/>
      <point x="247" y="150"/>
      <point x="266" y="133"/>
      <point x="266" y="92" type="curve" smooth="yes"/>
      <point x="266" y="42"/>
      <point x="214" y="13"/>
      <point x="169" y="13" type="curve" smooth="yes"/>
      <point x="124" y="13"/>
      <point x="74" y="38"/>
      <point x="54" y="104" type="curve"/>
      <point x="53" y="109"/>
      <point x="47" y="111"/>
      <point x="42" y="111" type="curve" smooth="yes"/>
      <point x="35" y="111"/>
      <point x="29" y="108"/>
      <point x="29" y="102" type="curve"/>
      <point x="30" y="79"/>
      <point x="33" y="36"/>
      <point x="39" y="22" type="curve"/>
      <point x="62" y="-1"/>
      <point x="98" y="-14"/>
      <point x="135" y="-14" type="curve" smooth="yes"/>
    </contour>
  </outline>
</glyph>
<glyph name="w" format="1">
  <advance width="570"/>
  <unicode hex="0077"/>
  <outline>
    <contour>
      <point x="187" y="-23" type="curve" smooth="yes"/>
      <point x="190" y="-23"/>
      <point x="193" y="-20"/>
      <point x="195" y="-16" type="curve"/>
      <point x="278" y="243" type="line" smooth="yes"/>
      <point x="280" y="250"/>
      <point x="283" y="253"/>
      <point x="285" y="253" type="curve" smooth="yes"/>
      <point x="287" y="253"/>
      <point x="290" y="249"/>
      <point x="291" y="244" type="curve" smooth="yes"/>
      <point x="361" y="-16" type="line" smooth="yes"/>
      <point x="362" y="-20"/>
      <point x="366" y="-23"/>
      <point x="369" y="-23" type="curve" smooth="yes"/>
      <point x="373" y="-23"/>
      <point x="376" y="-20"/>
      <point x="378" y="-16" type="curve"/>
      <point x="499" y="312" type="line" smooth="yes"/>
      <point x="510" y="342"/>
      <point x="532" y="372"/>
      <point x="552" y="378" type="curve"/>
      <point x="563" y="382"/>
      <point x="575" y="386"/>
      <point x="575" y="396" type="curve" smooth="yes"/>
      <point x="575" y="404"/>
      <point x="563" y="405"/>
      <point x="555" y="405" type="curve" smooth="yes"/>
      <point x="533" y="405"/>
      <point x="534" y="400"/>
      <point x="497" y="400" type="curve" smooth="yes"/>
      <point x="461" y="400"/>
      <point x="451" y="405"/>
      <point x="422" y="405" type="curve" smooth="yes"/>
      <point x="415" y="405"/>
      <point x="402" y="404"/>
      <point x="402" y="396" type="curve" smooth="yes"/>
      <point x="402" y="386"/>
      <point x="414" y="382"/>
      <point x="425" y="378" type="curve" smooth="yes"/>
      <point x="440" y="373"/>
      <point x="460" y="358"/>
      <point x="460" y="334" type="curve" smooth="yes"/>
      <point x="460" y="325"/>
      <point x="457" y="306"/>
      <point x="453" y="295" type="curve" smooth="yes"/>
      <point x="369" y="60" type="line" smooth="yes"/>
      <point x="366" y="53"/>
      <point x="364" y="50"/>
      <point x="361" y="50" type="curve" smooth="yes"/>
      <point x="359" y="50"/>
      <point x="355" y="54"/>
      <point x="353" y="61" type="curve" smooth="yes"/>
      <point x="286" y="312" type="line" smooth="yes"/>
      <point x="283" y="324"/>
      <point x="279" y="334"/>
      <point x="279" y="342" type="curve" smooth="yes"/>
      <point x="279" y="366"/>
      <point x="298" y="373"/>
      <point x="313" y="378" type="curve" smooth="yes"/>
      <point x="324" y="382"/>
      <point x="336" y="386"/>
      <point x="336" y="396" type="curve" smooth="yes"/>
      <point x="336" y="404"/>
      <point x="327" y="405"/>
      <point x="322" y="405" type="curve" smooth="yes"/>
      <point x="306" y="405"/>
      <point x="288" y="400"/>
      <point x="262" y="400" type="curve" smooth="yes"/>
      <point x="235" y="400"/>
      <point x="221" y="405"/>
      <point x="208" y="405" type="curve" smooth="yes"/>
      <point x="203" y="405"/>
      <point x="194" y="404"/>
      <point x="194" y="396" type="curve" smooth="yes"/>
      <point x="194" y="386"/>
      <point x="206" y="382"/>
      <point x="217" y="378" type="curve" smooth="yes"/>
      <point x="240" y="369"/>
      <point x="268" y="350"/>
      <point x="268" y="321" type="curve" smooth="yes"/>
      <point x="268" y="306"/>
      <point x="266" y="290"/>
      <point x="260" y="273" type="curve" smooth="yes"/>
      <point x="184" y="52" type="line" smooth="yes"/>
      <point x="183" y="49"/>
      <point x="181" y="48"/>
      <point x="179" y="48" type="curve" smooth="yes"/>
      <point x="177" y="48"/>
      <point x="175" y="49"/>
      <point x="174" y="52" type="curve" smooth="yes"/>
      <point x="97" y="313" type="line" smooth="yes"/>
      <point x="95" y="321"/>
      <point x="92" y="330"/>
      <point x="92" y="339" type="curve" smooth="yes"/>
      <point x="92" y="358"/>
      <point x="106" y="374"/>
      <point x="120" y="378" type="curve"/>
      <point x="131" y="382"/>
      <point x="143" y="386"/>
      <point x="143" y="396" type="curve" smooth="yes"/>
      <point x="143" y="404"/>
      <point x="133" y="405"/>
      <point x="129" y="405" type="curve" smooth="yes"/>
      <point x="109" y="405"/>
      <point x="91" y="400"/>
      <point x="71" y="400" type="curve" smooth="yes"/>
      <point x="53" y="400"/>
      <point x="38" y="405"/>
      <point x="20" y="405" type="curve" smooth="yes"/>
      <point x="15" y="405"/>
      <point x="5" y="404"/>
      <point x="5" y="396" type="curve" smooth="yes"/>
      <point x="5" y="386"/>
      <point x="17" y="382"/>
      <point x="28" y="378" type="curve"/>
      <point x="48" y="372"/>
      <point x="70" y="355"/>
      <point x="80" y="329" type="curve" smooth="yes"/>
      <point x="180" y="-16" type="line"/>
      <point x="181" y="-20"/>
      <point x="184" y="-23"/>
    </contour>
  </outline>
</glyph>
